<svg version="1.1" id="Layer_1" xmlns="http://www.w3.org/2000/svg" xmlns:xlink="http://www.w3.org/1999/xlink" x="0px" y="0px"
	 width="100%" viewBox="0 0 681 681" enable-background="new 0 0 681 681" xml:space="preserve">
<path fill="#FFFFFF" opacity="1.000000" stroke="none" 
	d="
M682.000000,189.000000 
	C682.000000,353.666656 682.000000,517.833313 682.000000,682.000000 
	C455.000061,682.000000 228.000092,682.000000 1.000105,682.000000 
	C1.000070,455.000061 1.000070,228.000153 1.000035,1.000166 
	C227.999893,1.000111 454.999786,1.000111 681.999878,1.000055 
	C682.000000,63.500000 682.000000,126.000000 682.000000,189.000000 
M84.997620,507.513733 
	C115.661682,550.264709 154.333420,583.748352 201.469803,607.149353 
	C259.612305,636.014404 321.045624,645.940552 385.304993,637.061279 
	C458.547668,626.940735 521.099731,595.000671 571.314941,540.914246 
	C639.234558,467.758545 666.739929,380.732056 653.954712,281.765808 
	C644.458252,208.256836 611.876343,145.650009 557.596252,95.377487 
	C483.455048,26.710236 395.233002,-0.567710 295.352753,13.487123 
	C217.439835,24.450785 152.751968,61.353477 101.703377,121.221642 
	C56.525490,174.204819 31.730331,235.881592 27.547033,305.388000 
	C23.113035,379.059875 42.266304,446.342468 84.997620,507.513733 
z"/>
<path fill="#9B3636" opacity="1.000000" stroke="none" 
	d="
M84.797234,507.217010 
	C42.266304,446.342468 23.113035,379.059875 27.547033,305.388000 
	C31.730331,235.881592 56.525490,174.204819 101.703377,121.221642 
	C152.751968,61.353477 217.439835,24.450785 295.352753,13.487123 
	C395.233002,-0.567710 483.455048,26.710236 557.596252,95.377487 
	C611.876343,145.650009 644.458252,208.256836 653.954712,281.765808 
	C666.739929,380.732056 639.234558,467.758545 571.314941,540.914246 
	C521.099731,595.000671 458.547668,626.940735 385.304993,637.061279 
	C321.045624,645.940552 259.612305,636.014404 201.469803,607.149353 
	C154.333420,583.748352 115.661682,550.264709 84.797234,507.217010 
M447.526642,609.005798 
	C485.380920,594.788330 519.655090,574.466492 548.661194,546.311218 
	C624.460388,472.735504 655.926880,383.268402 640.988403,278.524811 
	C631.775024,213.923935 603.573853,157.869995 557.154053,112.058716 
	C486.397675,42.229897 400.945587,12.951591 302.108704,24.941532 
	C237.982330,32.720726 181.852707,59.254631 135.362671,103.832474 
	C61.015808,175.121323 29.563139,262.786926 42.068050,365.184662 
	C50.268288,432.333130 79.233070,490.106659 126.843918,538.093872 
	C175.471283,587.105591 234.292801,616.181885 302.866852,625.196838 
	C352.141205,631.674622 400.120697,626.372681 447.526642,609.005798 
z"/>
<path fill="#FCF8F8" opacity="1.000000" stroke="none" 
	d="
M447.153442,609.117493 
	C400.120697,626.372681 352.141205,631.674622 302.866852,625.196838 
	C234.292801,616.181885 175.471283,587.105591 126.843918,538.093872 
	C79.233070,490.106659 50.268288,432.333130 42.068050,365.184662 
	C29.563139,262.786926 61.015808,175.121323 135.362671,103.832474 
	C181.852707,59.254631 237.982330,32.720726 302.108704,24.941532 
	C400.945587,12.951591 486.397675,42.229897 557.154053,112.058716 
	C603.573853,157.869995 631.775024,213.923935 640.988403,278.524811 
	C655.926880,383.268402 624.460388,472.735504 548.661194,546.311218 
	C519.655090,574.466492 485.380920,594.788330 447.153442,609.117493 
M464.826935,593.350708 
	C499.106171,577.587585 529.614380,556.364563 555.276855,528.725647 
	C620.644165,458.324097 647.066284,375.001190 633.486572,280.127075 
	C623.667847,211.528610 592.136597,153.133789 540.395691,106.912750 
	C469.103455,43.226109 385.373413,18.936905 291.050629,34.467747 
	C225.281845,45.296997 169.456268,76.235847 124.816399,125.657074 
	C60.261444,197.126480 35.917427,281.366119 51.565468,376.148712 
	C62.826981,444.361389 95.747025,501.538910 147.897018,547.057434 
	C199.175705,591.815430 259.158081,616.134094 327.150726,619.706116 
	C374.820984,622.210632 420.587463,613.418213 464.826935,593.350708 
z"/>
<path fill="#9A3535" opacity="1.000000" stroke="none" 
	d="
M464.497009,593.536438 
	C420.587463,613.418213 374.820984,622.210632 327.150726,619.706116 
	C259.158081,616.134094 199.175705,591.815430 147.897018,547.057434 
	C95.747025,501.538910 62.826981,444.361389 51.565468,376.148712 
	C35.917427,281.366119 60.261444,197.126480 124.816399,125.657074 
	C169.456268,76.235847 225.281845,45.296997 291.050629,34.467747 
	C385.373413,18.936905 469.103455,43.226109 540.395691,106.912750 
	C592.136597,153.133789 623.667847,211.528610 633.486572,280.127075 
	C647.066284,375.001190 620.644165,458.324097 555.276855,528.725647 
	C529.614380,556.364563 499.106171,577.587585 464.497009,593.536438 
M550.862244,470.895050 
	C547.902283,475.259827 544.942383,479.624573 541.184753,483.806030 
	C540.776550,476.957611 538.062378,471.137024 532.477661,464.846985 
	C530.858459,471.284851 528.568909,476.644348 528.478088,482.040833 
	C528.415649,485.751770 531.403809,489.514069 533.364319,494.026428 
	C530.565186,496.574280 526.929321,499.883759 523.969604,502.577759 
	C522.274536,497.213013 520.426514,491.364075 518.397217,484.941498 
	C509.284180,494.426453 508.175598,504.712677 514.955627,512.022644 
	C511.229950,515.166992 507.519073,518.298950 504.305237,521.011414 
	C502.923340,514.888245 501.614380,509.088348 500.182343,502.743042 
	C490.515961,511.546722 488.396881,520.803589 493.760468,529.177246 
	C487.004608,533.643494 480.239868,538.115601 473.185211,542.779358 
	C474.077942,544.045654 474.873932,545.174866 475.888092,546.613464 
	C482.920044,541.729797 489.596802,537.092773 496.266693,532.448486 
	C502.037354,540.322876 513.176147,539.856323 524.115540,530.169067 
	C517.964905,527.987610 512.233398,525.954773 506.510651,523.925049 
	C510.091614,520.742188 513.785034,517.459412 517.490784,514.165649 
	C523.554749,522.088013 535.123047,520.400024 544.855957,510.182190 
	C541.757629,509.118683 538.849304,507.864288 535.813843,507.149780 
	C532.713013,506.419922 529.487427,506.219849 525.889160,505.729614 
	C529.549866,501.634521 532.948303,497.832855 536.373047,494.001740 
	C542.969910,501.921143 556.609863,498.585480 562.717712,487.659973 
	C562.085022,487.435150 561.497742,487.094360 560.880981,487.027924 
	C554.965820,486.391235 549.045715,485.800781 543.721863,484.870026 
	C545.557129,482.399384 547.284485,479.837891 549.263794,477.488586 
	C550.693542,475.791595 552.458252,474.376740 554.277466,473.559082 
	C559.758118,479.195557 571.852295,475.808441 579.226318,462.992371 
	C571.452637,462.992371 564.068298,462.992371 556.434998,462.992371 
	C556.954346,455.624451 552.625244,450.134033 546.740601,443.934204 
	C545.588135,449.577271 544.034424,454.204224 543.856689,458.883453 
	C543.674622,463.677307 544.696167,468.608429 550.862244,470.895050 
M133.162949,470.225708 
	C140.421341,465.806183 141.370972,455.356964 134.549072,443.631561 
	C131.071426,450.667542 128.026749,456.827515 124.977402,462.996948 
	C118.854271,462.996948 111.484657,462.996948 104.115051,462.996948 
	C103.879936,463.539886 103.644814,464.082855 103.409698,464.625793 
	C107.375854,467.978058 110.999741,471.899994 115.393776,474.540131 
	C121.040222,477.932800 126.775581,476.249603 130.170197,472.087463 
	C133.403946,476.456665 136.637695,480.825867 139.531586,485.867981 
	C132.845261,484.313202 126.469627,485.495209 120.062592,487.783844 
	C127.722740,498.905609 139.795761,501.772675 146.834244,494.178497 
	C150.211365,497.997314 153.572983,501.798553 156.603607,505.225525 
	C150.384903,506.748169 144.310532,508.235474 137.617249,509.874298 
	C149.019470,520.625488 159.358582,522.026428 165.684708,514.226501 
	C169.412064,517.614197 173.128418,520.991882 176.348297,523.918396 
	C170.467743,526.048584 164.836685,528.088440 158.666153,530.323669 
	C169.866837,539.830444 180.249374,540.327332 186.546906,532.366577 
	C193.365540,537.079041 200.184189,541.791504 207.333435,546.732422 
	C208.268173,545.071655 208.948456,543.862976 209.619812,542.670166 
	C202.530334,537.970825 195.773788,533.492188 188.942429,528.963989 
	C195.081909,522.462769 192.230270,510.662354 182.689301,502.911499 
	C181.326294,509.159912 180.048019,515.019836 178.732315,521.051392 
	C175.363632,518.193054 171.605759,515.004456 167.810577,511.784241 
	C174.813797,505.157104 173.819214,495.076599 165.212830,485.455261 
	C163.801315,488.453400 162.183029,491.150330 161.255173,494.066864 
	C160.299713,497.070160 160.017197,500.287537 159.545837,502.839508 
	C155.949448,499.665527 152.225616,496.379059 148.429169,493.028503 
	C157.746780,486.070679 155.661163,475.228027 149.216812,465.936646 
	C147.972427,467.824646 146.495621,469.487122 145.676773,471.427338 
	C143.941940,475.538025 142.550232,479.793518 140.821869,483.340210 
	C139.306610,481.424927 137.621384,479.617401 136.321243,477.565796 
	C134.854736,475.251709 133.734802,472.718018 133.162949,470.225708 
M85.973763,407.979248 
	C85.973763,407.979248 86.028305,408.023499 86.227058,407.374481 
	C96.572914,399.759949 106.918770,392.145416 117.264618,384.530853 
	C117.128784,383.951599 116.992950,383.372375 116.857117,382.793121 
	C104.330933,381.269348 91.804749,379.745544 79.278564,378.221771 
	C86.761017,375.450958 94.194832,373.797424 101.536697,371.805023 
	C105.750832,370.661377 109.862198,368.798279 112.378014,375.102173 
	C114.335968,368.076813 110.558846,362.140930 109.731918,355.875427 
	C109.619041,355.020142 107.961006,354.368805 105.834274,352.686188 
	C107.140869,359.281860 103.855591,360.251495 99.972054,361.078064 
	C93.820633,362.387421 87.752754,364.086334 81.640488,365.583527 
	C77.355301,366.633179 72.703468,369.358795 69.609268,362.725067 
	C68.143349,369.782684 71.419228,375.518707 72.347992,381.373352 
	C81.613617,382.417023 90.266754,383.391724 100.376091,384.530426 
	C91.850052,390.313354 84.513084,395.289795 76.887146,400.462219 
	C79.489334,406.757263 79.013939,413.999908 84.207817,420.055603 
	C83.017426,411.701263 88.619225,411.811523 93.497658,410.788422 
	C99.005302,409.633301 104.515480,408.356476 109.870956,406.650421 
	C114.439438,405.195068 118.541168,403.894623 120.293358,410.222626 
	C123.642303,407.432068 120.932182,395.917053 116.248268,394.024292 
	C116.248268,395.703003 116.490730,397.150177 116.175430,398.463470 
	C115.897911,399.619415 115.177963,401.382050 114.343079,401.582153 
	C104.901924,403.845276 95.400955,405.858826 85.973763,407.979248 
M540.263733,147.268372 
	C540.404785,147.392273 540.545898,147.516190 540.266724,148.152405 
	C534.592163,153.780060 528.876831,159.367477 523.266846,165.058746 
	C521.480713,166.870804 519.942078,168.264084 517.342529,166.272064 
	C516.720093,165.795059 515.338928,166.308197 514.306702,166.365936 
	C514.554810,167.263702 514.531311,168.415604 515.095032,169.018143 
	C518.848267,173.030075 522.689026,176.963211 526.605957,180.815552 
	C527.192505,181.392410 528.327454,181.411575 529.208740,181.688751 
	C529.327332,180.673721 529.917297,179.335876 529.481934,178.700119 
	C527.693848,176.088867 528.964905,174.478592 530.789185,172.708771 
	C536.167847,167.490524 541.469910,162.193008 546.788208,156.912689 
	C549.464966,154.255035 551.970459,151.127106 556.315735,154.206619 
	C556.516602,154.348938 557.333130,153.622467 557.611572,153.453308 
	C553.137268,149.148727 548.793091,144.969315 544.129761,140.482910 
	C537.375916,143.462463 529.434998,146.965729 521.494080,150.468979 
	C524.055603,142.681931 527.477295,135.768127 530.664062,128.747711 
	C531.219727,127.523544 531.418945,125.290634 530.701721,124.478928 
	C527.178894,120.492142 523.329407,116.788109 519.490723,113.092812 
	C518.918030,112.541534 517.790466,112.566650 516.919617,112.325111 
	C516.888123,113.318802 516.424438,114.664742 516.898499,115.246407 
	C519.188721,118.056450 518.036316,119.921730 515.793335,122.032372 
	C510.699982,126.825409 505.800049,131.823502 500.797607,136.713852 
	C495.694031,141.703079 495.681549,141.690323 489.501556,139.716400 
	C488.823883,143.826721 496.696777,151.863159 501.315216,151.091843 
	C500.584961,149.853531 499.557220,148.838196 499.430298,147.720581 
	C499.251831,146.149002 499.136932,143.913910 500.043213,142.980881 
	C506.400726,136.435699 513.027954,130.152435 519.568909,123.785416 
	C519.802795,125.913254 519.251648,127.568336 518.568604,129.167114 
	C514.856323,137.856262 511.055603,146.508270 507.431671,155.233841 
	C506.805939,156.740341 506.882996,158.538712 506.635406,160.202271 
	C508.284698,159.820587 510.030640,159.667999 511.567535,159.019791 
	C521.029663,155.028870 530.444641,150.926041 540.263733,147.268372 
M488.614014,481.102600 
	C545.122070,425.623077 567.203186,358.462097 551.373779,281.159454 
	C525.969482,157.097870 399.907745,83.384949 279.313171,120.109207 
	C180.567596,150.179871 116.744217,247.761154 129.262634,350.073181 
	C135.766495,403.228577 158.710876,448.340759 198.693558,484.003143 
	C247.687820,527.703430 305.351379,545.245850 370.469391,537.123962 
	C415.617493,531.492737 454.736969,512.490112 488.614014,481.102600 
M304.183716,557.103455 
	C295.799866,555.225342 287.425842,553.300049 279.017059,551.541016 
	C278.162659,551.362305 277.098938,552.184326 276.132355,552.541992 
	C276.601044,553.308044 277.104797,554.055115 277.530884,554.844177 
	C278.364655,556.388306 280.062561,558.119080 279.816437,559.487122 
	C278.205139,568.442688 276.267944,577.345154 274.163361,586.199951 
	C273.857605,587.486267 272.136566,588.480347 270.976990,589.503845 
	C270.226837,590.166016 269.306671,590.635498 268.462677,591.191345 
	C269.135223,591.794983 269.724457,592.770020 270.493713,592.942505 
	C275.821533,594.137512 281.177246,595.218811 286.551147,596.185791 
	C287.300903,596.320740 288.199310,595.629944 289.028900,595.321350 
	C288.460510,594.517090 287.928223,593.684082 287.315094,592.915466 
	C286.459625,591.843201 284.703217,590.733154 284.799774,589.789368 
	C285.208923,585.789917 286.160858,581.846008 286.914124,577.883362 
	C291.456360,578.233215 293.514832,580.214111 294.047455,583.822632 
	C294.410522,586.282043 294.819366,588.741943 295.018066,591.216797 
	C295.388123,595.826050 297.041534,599.163330 302.245850,599.669617 
	C304.212067,599.860901 306.124176,600.666199 308.087891,600.801758 
	C309.073578,600.869873 310.119629,600.063660 310.085052,600.077576 
	C307.119873,592.591431 304.463043,585.883728 301.713531,578.942017 
	C307.526154,577.963989 311.190186,574.010986 311.573212,567.608521 
	C311.860687,562.803345 309.068542,559.539612 304.183716,557.103455 
M387.953125,92.112793 
	C388.945923,83.534042 390.274872,74.975853 390.801361,66.368576 
	C391.101593,61.459667 391.513977,57.505230 397.554871,57.187847 
	C397.695618,57.180450 397.807526,56.623924 397.927399,56.321228 
	C394.684448,52.865131 383.976898,52.044163 381.581604,55.067963 
	C387.299927,58.676846 387.395538,58.687496 386.926788,62.895912 
	C386.311371,68.421028 385.526611,73.927292 384.685089,80.445183 
	C378.428467,71.154686 372.785004,62.602985 366.915985,54.208992 
	C365.784058,52.590099 363.944946,50.935890 362.122894,50.444519 
	C358.790161,49.545742 355.233429,49.388901 351.754669,49.180973 
	C350.855408,49.127220 349.898834,50.032867 348.968567,50.497810 
	C349.459686,51.271458 349.783600,52.484753 350.469727,52.745758 
	C354.269440,54.191200 354.526337,57.046139 354.095551,60.469185 
	C353.307770,66.728714 352.538269,72.998306 352.059235,79.286415 
	C351.693390,84.088531 351.727356,88.880775 344.457336,88.337296 
	C344.931244,89.545639 345.118958,90.813400 345.499084,90.873985 
	C350.411804,91.657021 355.346649,92.317078 360.292969,92.849564 
	C360.804932,92.904678 361.981964,91.761909 361.892426,91.486130 
	C361.628204,90.672722 360.951202,89.463455 360.314667,89.384422 
	C355.035156,88.728996 355.769196,85.170883 356.322021,81.607628 
	C356.601868,79.804039 356.780334,77.984787 357.008820,76.173134 
	C357.591553,71.552551 358.176605,66.932266 358.908600,61.142323 
	C366.726990,72.754684 373.727722,83.241898 380.865173,93.635208 
	C381.713287,94.870239 383.476959,96.510880 384.514557,96.320381 
	C385.818970,96.080894 386.812531,94.148285 387.953125,92.112793 
M91.598679,348.074768 
	C106.341278,345.676331 114.146011,331.264740 108.366920,317.111847 
	C104.083542,306.621948 92.107239,301.440155 80.484833,305.048065 
	C70.048553,308.287750 63.973656,319.299622 66.194283,330.952240 
	C68.450165,342.789795 78.035736,349.492920 91.598679,348.074768 
M323.516296,593.820618 
	C328.579102,601.068665 335.647888,603.674866 344.275177,603.106506 
	C353.417816,602.504211 360.267792,597.411133 363.173492,588.682739 
	C366.192169,579.615051 363.654785,569.564636 356.967285,564.100464 
	C348.837067,557.457520 335.902954,557.300171 327.786041,563.745483 
	C319.455078,570.360779 317.608612,582.019287 323.516296,593.820618 
M615.286255,336.460663 
	C618.541931,332.294556 618.912170,321.585022 615.331116,318.724213 
	C614.135681,326.249634 608.570679,325.223419 603.433777,324.960297 
	C598.124268,324.688324 592.821167,324.288666 587.516174,323.931213 
	C583.010498,323.627594 577.984070,324.009705 578.940247,316.877960 
	C574.626099,318.719055 573.533325,331.036713 577.200867,334.866974 
	C577.814880,333.358215 578.155151,331.935089 578.923645,330.802643 
	C579.658264,329.720184 580.870789,328.119354 581.817810,328.156586 
	C589.672241,328.465393 597.513855,329.101471 606.659180,329.727600 
	C604.181946,331.571228 602.876648,332.546722 601.567139,333.516602 
	C592.615845,340.146667 583.610474,346.706207 574.775818,353.488098 
	C573.605408,354.386536 572.733887,356.450470 572.825439,357.905273 
	C572.874817,358.689667 575.214600,359.821045 576.599670,359.949921 
	C585.199402,360.750214 593.814941,361.659576 602.438416,361.817810 
	C607.491882,361.910492 611.499817,362.352234 612.427917,368.279877 
	C612.451599,368.430939 612.991150,368.501282 613.283997,368.607056 
	C616.441040,364.734711 616.646729,354.210846 614.320984,352.634521 
	C612.161560,354.522705 610.243103,357.635376 608.186157,357.729767 
	C602.012512,358.013031 595.784851,357.118134 588.312012,356.594208 
	C597.752930,349.562225 606.223755,343.252808 615.286255,336.460663 
M240.083527,84.277596 
	C240.387054,85.735237 240.642090,87.204956 241.001511,88.648682 
	C245.148483,105.306374 263.745697,111.451439 277.085297,100.580872 
	C285.079285,94.066490 287.245636,83.537354 282.642670,73.570679 
	C278.604156,64.826302 269.101410,59.666523 260.311615,61.445442 
	C247.172867,64.104515 240.622147,71.214493 240.083527,84.277596 
M600.608704,392.000732 
	C604.294006,396.308136 605.023254,401.294220 601.631348,405.640533 
	C599.735718,408.069580 596.051270,409.347687 592.934204,410.497192 
	C590.648865,411.339966 589.184204,412.175385 590.268555,414.615753 
	C591.440369,417.253052 600.344116,417.736725 601.566223,415.095947 
	C603.911682,410.027618 606.404907,404.860168 607.595581,399.460175 
	C610.002563,388.544403 604.085754,378.242096 594.154724,374.568237 
	C583.353027,370.572296 572.810913,373.960754 567.506592,384.438385 
	C564.844421,389.696960 564.214172,396.049683 563.057678,401.984100 
	C562.153870,406.621948 564.097412,409.371704 569.142456,410.222687 
	C571.328674,410.591461 573.288513,412.593109 575.222107,414.027161 
	C576.005188,414.607941 576.443665,415.653290 577.039001,416.487244 
	C577.714539,415.672180 578.719666,414.959625 579.010498,414.024933 
	C580.532227,409.133484 581.965271,404.208618 583.196838,399.237823 
	C583.437622,398.265900 582.653015,397.039917 582.621582,396.928040 
	C580.612671,398.422455 578.718201,400.966003 577.080566,400.810181 
	C573.831421,400.501068 569.651306,399.510406 567.938660,397.234314 
	C566.815063,395.741089 568.842285,391.199829 570.410278,388.597046 
	C571.451538,386.868652 574.037842,385.629791 576.167786,385.075104 
	C585.262573,382.706482 593.061279,385.798920 600.608704,392.000732 
M248.276993,585.093750 
	C255.802933,586.386658 255.991058,586.143127 259.257446,578.877258 
	C260.059082,577.093994 261.972961,575.773254 263.495544,574.370117 
	C264.107147,573.806519 265.041992,573.593811 265.829742,573.221375 
	C265.189087,572.402710 264.718781,571.205078 263.879669,570.828003 
	C259.046936,568.656006 254.162140,566.584167 249.202408,564.725403 
	C248.359390,564.409424 247.067902,565.290039 245.419708,565.788330 
	C250.951065,570.186951 251.579575,574.022766 247.698364,578.649597 
	C244.786957,582.120239 241.552460,579.990723 238.901688,578.016174 
	C233.847412,574.251160 232.880035,567.046204 235.993881,558.819458 
	C239.611969,549.260437 244.871033,544.461060 251.414352,544.746765 
	C257.795593,545.025391 261.553131,548.966248 261.926636,556.191284 
	C262.065430,558.876526 262.740204,560.700684 265.667297,559.667603 
	C268.383911,558.708862 269.439087,549.533936 266.950897,548.133667 
	C261.935608,545.311157 256.926697,541.978577 251.470871,540.530823 
	C235.023270,536.166199 220.595184,549.672791 223.991821,565.670654 
	C226.079834,575.505005 234.943481,582.813110 248.276993,585.093750 
M438.028503,73.796394 
	C438.353149,75.578308 438.289185,77.578003 439.126709,79.072472 
	C439.784119,80.245567 441.853241,81.733948 442.776337,81.441971 
	C445.428802,80.603012 446.161743,71.265480 443.676605,69.992813 
	C438.848053,67.520103 433.980804,64.741112 428.790863,63.433201 
	C416.940613,60.446842 406.501160,66.081238 402.536499,76.749672 
	C398.408478,87.857841 402.525940,98.678665 413.951904,104.076950 
	C418.868500,106.399841 424.691772,106.865196 430.144348,107.971336 
	C434.085724,108.770920 436.188354,106.988449 437.143250,102.986221 
	C437.976654,99.493233 438.407776,95.076126 444.300842,95.279716 
	C439.198578,90.321472 432.311249,89.871445 426.436432,87.309608 
	C425.862671,87.059395 424.653046,88.267418 423.571777,88.895432 
	C425.784393,90.890877 428.799133,92.529793 428.617371,93.650040 
	C428.090118,96.899490 426.893127,100.537415 424.696716,102.794846 
	C423.700714,103.818520 419.421814,102.475258 417.193756,101.213829 
	C415.378967,100.186363 413.959381,97.859863 413.129150,95.801048 
	C410.000854,88.043335 414.542450,74.153244 421.487671,69.436874 
	C427.258026,65.518295 433.315399,66.859344 438.028503,73.796394 
M185.691650,151.851532 
	C186.266022,150.938110 187.540421,149.513977 187.305023,149.191315 
	C185.255615,146.382263 182.976562,143.731079 180.561539,141.230194 
	C180.453552,141.118378 177.878601,142.694229 177.382721,143.874664 
	C176.996384,144.794296 178.101868,146.309448 178.467728,147.581985 
	C179.672379,151.772217 174.923264,160.167343 170.705399,161.021622 
	C169.777191,161.209610 168.400101,160.691162 167.657669,160.022720 
	C164.600632,157.270309 161.708481,154.334747 158.639999,151.354141 
	C161.505005,148.109207 163.409958,143.938934 168.500183,147.333527 
	C169.005600,147.670578 170.827377,147.154877 170.880829,146.839081 
	C171.043640,145.877014 170.986877,144.502899 170.395660,143.854065 
	C168.045074,141.274414 165.517136,138.844376 162.915131,136.515045 
	C162.334305,135.995102 160.948639,135.702820 160.367767,136.044327 
	C159.794312,136.381470 159.268967,137.974030 159.583313,138.467484 
	C162.989624,143.814804 158.576309,145.661789 155.491608,148.436752 
	C152.118195,144.863495 148.931808,141.488358 145.522415,137.876999 
	C149.893387,134.680664 151.994980,126.197578 160.755844,130.783936 
	C161.369781,131.105331 162.737930,129.986084 163.755356,129.536758 
	C163.333130,128.584290 163.150467,127.365211 162.443344,126.729820 
	C160.398849,124.892761 158.143326,123.290596 155.970642,121.596214 
	C156.261963,122.195488 156.553268,122.794762 156.844589,123.394035 
	C149.206894,130.352127 141.526825,137.264908 133.981430,144.321671 
	C132.958374,145.278488 132.610245,146.956940 131.975098,148.249390 
	C135.256134,148.249390 138.578964,147.245682 139.766312,148.413391 
	C147.102829,155.628540 153.958542,163.332550 161.262314,171.184052 
	C161.120163,171.788376 160.680023,173.659637 160.381622,174.928299 
	C168.709869,167.329483 176.916702,159.841476 185.691650,151.851532 
M458.885773,553.949524 
	C459.102295,543.287415 454.047638,537.269775 444.617035,539.269348 
	C435.431671,541.216980 426.718933,545.393677 417.798706,548.591675 
	C417.835724,549.200562 417.872742,549.809448 417.909760,550.418274 
	C418.924561,550.759399 419.979584,551.013977 420.944672,551.462158 
	C422.349915,552.114746 424.472748,552.580566 424.935608,553.690552 
	C428.871979,563.130676 432.501404,572.698792 436.179230,582.116943 
	C435.693390,582.764465 435.343719,583.126831 435.115906,583.554138 
	C434.507446,584.695496 433.951385,585.864746 433.374481,587.022949 
	C434.577026,587.002563 435.893707,587.296326 436.962769,586.908203 
	C442.087006,585.047607 447.179077,583.084412 452.194763,580.950989 
	C453.149658,580.544922 453.708221,579.207153 454.449615,578.299194 
	C453.326416,578.078430 452.074585,577.425110 451.102905,577.713989 
	C447.451385,578.799805 445.447113,577.585144 444.493896,573.959778 
	C443.924225,571.793213 442.972870,569.727051 442.171356,567.556885 
	C449.155701,564.744873 456.126862,562.513306 458.885773,553.949524 
M379.267822,594.210266 
	C382.170105,595.697083 384.920197,597.872620 388.000610,598.553345 
	C402.561584,601.771179 413.177094,592.236511 410.837891,578.323242 
	C410.123413,574.073730 409.139435,569.870300 408.348633,565.632690 
	C407.499908,561.084473 405.232117,556.069092 412.600311,553.671387 
	C407.264954,550.765625 402.749786,553.894775 398.187714,554.189026 
	C397.307709,554.245789 396.526031,555.828003 396.180817,556.194702 
	C398.859619,558.024475 402.231110,559.064453 402.756226,560.912964 
	C404.651520,567.584717 405.728943,574.505798 406.847290,581.376404 
	C407.914124,587.930542 403.755981,593.429321 397.070221,594.769897 
	C391.834198,595.819763 388.325287,593.101868 386.556030,586.034851 
	C385.188873,580.574158 384.287628,574.995972 383.208923,569.464233 
	C382.376099,565.193420 380.364502,560.520569 387.282532,558.977356 
	C384.024353,556.491821 377.729340,556.904724 368.483185,559.884521 
	C367.437775,560.221436 366.600372,561.203735 365.666504,561.886780 
	C365.570312,562.369751 365.474121,562.852783 365.377960,563.335815 
	C371.138550,562.213928 372.087250,565.351440 372.268677,569.322083 
	C372.335999,570.796021 372.698944,572.281006 373.104401,573.710754 
	C374.986420,580.347168 376.930603,586.965942 379.267822,594.210266 
M313.720123,94.168579 
	C314.885742,94.171188 316.052063,94.201935 317.216827,94.172058 
	C328.715851,93.877190 334.408905,88.094719 333.941803,76.682846 
	C333.704620,70.887421 332.769409,65.122276 332.210632,59.337563 
	C331.940155,56.537876 331.279022,53.542934 335.347198,52.628773 
	C336.020172,52.477551 336.456177,51.271603 337.001678,50.553055 
	C336.095734,50.058315 335.167938,49.106590 334.287628,49.148628 
	C330.643494,49.322662 326.995361,49.680191 323.392090,50.246471 
	C322.526337,50.382526 321.827057,51.578121 321.051239,52.286438 
	C321.908539,52.843178 322.760986,53.865803 323.624023,53.874847 
	C327.094543,53.911221 327.652740,56.188229 327.916168,58.847839 
	C328.521637,64.960770 329.129913,71.073418 329.742432,77.185646 
	C330.459198,84.337791 326.049469,89.791115 318.824219,90.679932 
	C313.135864,91.379684 309.720276,87.544212 308.937958,79.622627 
	C308.497284,75.160301 308.028534,70.700600 307.544220,66.242783 
	C307.017120,61.391571 304.735107,56.006130 311.963531,53.752747 
	C307.691040,50.712139 292.854095,52.382992 291.031281,55.273201 
	C292.773010,57.027210 295.472412,58.463825 295.845581,60.358566 
	C297.028168,66.363724 297.483002,72.528999 297.959198,78.652596 
	C298.704895,88.241814 303.322510,93.157860 313.720123,94.168579 
M489.197906,92.812744 
	C485.751068,90.396759 482.343475,87.921494 478.835968,85.597031 
	C477.613129,84.786652 476.178192,84.250374 474.780640,83.757675 
	C469.137115,81.768082 463.632507,82.839958 460.596771,86.558258 
	C456.969666,91.000885 457.268097,95.706924 459.922058,100.466019 
	C461.294647,102.927376 462.798309,105.315361 464.193878,107.764351 
	C465.258301,109.632179 466.309937,111.512527 467.252716,113.443230 
	C468.731842,116.472382 468.710724,119.940933 465.648407,121.275238 
	C463.618378,122.159782 459.987061,121.424362 458.049591,120.043373 
	C453.862915,117.059181 452.481354,112.446655 453.186157,107.235016 
	C453.411804,105.566505 453.051147,103.818703 452.958740,102.107178 
	C452.311035,101.967522 451.663330,101.827866 451.015594,101.688210 
	C448.627228,105.970779 446.238831,110.253342 444.356049,113.629341 
	C448.146881,116.819046 451.143494,119.601479 454.418060,122.005363 
	C456.653290,123.646263 459.153656,125.099693 461.752045,126.035889 
	C467.091797,127.959816 472.296753,127.733490 476.412720,123.190491 
	C479.879395,119.364174 479.956696,114.175461 476.697205,108.356270 
	C474.591797,104.597458 472.108185,101.048958 470.037354,97.272774 
	C468.383453,94.256805 467.255859,90.627510 470.445984,88.212776 
	C473.938568,85.569107 477.192505,88.223846 479.629517,90.609833 
	C480.998474,91.950104 481.582489,94.346443 481.962280,96.371628 
	C482.347900,98.427887 482.047455,100.612808 482.047455,103.307823 
	C487.954865,102.095627 487.481110,96.884293 489.197906,92.812744 
M219.248138,90.572166 
	C219.248138,94.340721 219.248138,98.109276 219.248138,102.980949 
	C213.042175,99.121719 207.702042,95.800919 202.411331,92.510849 
	C203.954727,90.511078 205.156708,88.953682 207.138840,86.385460 
	C198.166336,88.386513 186.402863,96.297661 186.510086,99.507362 
	C194.528824,97.692619 199.399429,104.199371 205.765244,106.759346 
	C212.750900,109.568604 217.619141,114.257355 219.529343,121.620621 
	C218.208664,123.195618 216.962738,124.681473 215.716812,126.167328 
	C216.138306,126.744949 216.559784,127.322563 216.981277,127.900177 
	C223.146637,124.441620 229.344727,121.038231 235.423645,117.433899 
	C235.992706,117.096497 235.809250,115.489914 236.066132,113.915100 
	C233.562897,114.757843 231.755463,115.366341 229.728455,116.048759 
	C220.265869,103.239326 223.447662,89.614281 225.587830,75.037918 
	C220.901428,75.996544 217.143463,79.334358 212.954849,81.779785 
	C213.037216,82.220200 213.119568,82.660614 213.201920,83.101028 
	C215.024231,83.101028 216.846527,83.101028 218.907623,83.101028 
	C219.016953,85.354065 219.120316,87.483772 219.248138,90.572166 
M131.411880,214.467072 
	C129.877090,218.813980 126.165062,217.836914 122.969154,217.777985 
	C112.661995,217.587967 102.356178,217.297531 92.052483,216.964447 
	C89.411713,216.879074 87.585709,217.121948 86.328537,220.181488 
	C84.997002,223.422043 86.234459,224.984985 88.335411,226.870529 
	C96.377663,234.088364 104.453247,241.276199 112.266739,248.736679 
	C114.179016,250.562546 115.143921,253.380630 117.099976,256.679535 
	C117.495323,256.217773 119.259453,255.080414 119.528801,253.659683 
	C120.185059,250.198227 124.488792,247.086426 121.060760,242.280045 
	C119.732536,244.273895 118.859184,245.584930 117.980644,246.903763 
	C109.449936,240.512436 109.486847,240.528198 113.524887,231.070114 
	C116.222580,224.751480 121.277031,229.478790 125.184082,227.754089 
	C125.184082,229.939377 125.184082,231.386963 125.184082,233.120636 
	C126.233818,232.913361 127.524841,232.982025 127.697624,232.575455 
	C130.028366,227.090973 132.253479,221.558655 134.299271,215.963028 
	C134.428772,215.608826 132.862518,214.634644 131.411880,214.467072 
M118.834198,195.759537 
	C126.887680,196.831116 134.927444,198.037109 143.006165,198.861404 
	C144.631668,199.027283 146.673553,198.059509 147.965988,196.959442 
	C148.424362,196.569275 147.540024,194.018265 146.731079,192.815186 
	C140.524261,183.584213 134.054413,174.527161 127.994682,165.202682 
	C126.752213,163.290817 126.893173,160.480896 126.391762,158.085907 
	C126.216400,157.248260 126.026909,156.413605 125.843872,155.577576 
	C124.909439,155.955368 123.630676,156.070526 123.104858,156.759964 
	C121.500168,158.863922 120.041092,161.112991 118.807755,163.454346 
	C117.963173,165.057693 117.590004,166.909378 117.006096,168.650040 
	C118.618416,167.918488 120.225891,167.175873 121.847977,166.466660 
	C122.106667,166.353546 122.430916,166.390396 123.006760,166.326752 
	C127.985626,173.333038 133.041336,180.447464 138.799911,188.550949 
	C128.668289,186.794281 119.771996,185.251785 110.848518,183.704575 
	C111.221855,181.748230 111.537651,180.093369 111.894096,178.225540 
	C106.643806,179.331726 97.956886,193.880325 99.578651,195.974045 
	C102.779427,195.251938 105.456459,194.174225 108.137459,194.164307 
	C111.413597,194.152161 114.693054,195.035828 118.834198,195.759537 
M558.381348,211.008438 
	C554.778015,212.950912 551.168945,214.967285 547.628662,209.838409 
	C547.187622,211.780167 546.991455,213.423050 547.566650,214.725220 
	C550.507507,221.383118 553.653992,227.950058 556.716003,234.554581 
	C561.424011,244.709335 561.419678,244.711304 571.802551,240.401840 
	C571.955933,240.338211 572.161987,240.322861 572.257446,240.211334 
	C572.912842,239.445419 574.150940,238.555634 574.039062,237.905838 
	C573.882690,236.997787 572.848267,235.998657 571.936951,235.535919 
	C571.140686,235.131607 569.984924,235.313065 569.005676,235.411362 
	C563.276917,235.986404 559.783264,233.750610 557.797241,228.085449 
	C556.599731,224.669754 557.339233,223.343323 560.308472,222.038635 
	C566.976074,219.108810 573.654419,216.170013 580.130371,212.848892 
	C584.397339,210.660660 588.154785,209.044235 591.248962,214.330521 
	C591.314087,214.441864 591.830811,214.288879 592.136719,214.257248 
	C593.324768,209.772949 585.830994,194.718521 581.803223,194.295807 
	C583.855286,199.736450 579.890991,201.127197 576.226379,202.797897 
	C570.501404,205.407852 564.807129,208.084961 558.381348,211.008438 
M586.259766,248.876358 
	C581.440063,250.079834 576.647888,251.419861 571.782837,252.397797 
	C570.443359,252.667053 568.813538,252.035645 567.451965,251.484024 
	C566.304016,251.018951 565.351807,250.070511 564.312927,249.336029 
	C564.210083,250.710754 563.761597,252.166595 564.062073,253.446640 
	C565.651184,260.216187 567.401367,266.948578 569.147400,273.680420 
	C571.951782,284.492859 571.976990,284.542603 582.953918,282.893219 
	C584.053528,282.727997 584.978088,281.397766 585.983887,280.608215 
	C584.996704,279.729950 584.141663,278.353821 583.001709,278.051239 
	C572.761963,275.333191 572.747253,275.388611 571.245789,264.327911 
	C572.367065,263.901733 573.545715,263.333496 574.787476,263.001556 
	C581.989441,261.076324 589.232971,259.301636 596.408142,257.282715 
	C600.703979,256.073975 604.884705,254.505493 606.694946,260.681061 
	C606.771790,260.943481 607.863403,260.908508 608.485107,261.012573 
	C609.427246,254.922379 604.935486,240.412521 601.351257,239.071243 
	C602.417419,245.621353 597.661987,246.070816 593.292419,247.011642 
	C591.192444,247.463821 589.127136,248.076996 586.259766,248.876358 
M109.314133,298.004883 
	C109.779869,297.160370 110.500221,296.364563 110.672470,295.463898 
	C112.689125,284.919586 114.623428,274.359528 116.641655,263.468048 
	C113.399658,262.316132 110.360573,261.030121 107.201164,260.204620 
	C105.721893,259.818085 104.010323,260.320587 102.404037,260.420135 
	C103.225105,261.992310 103.659630,264.058319 104.931854,265.054077 
	C111.676003,270.332703 112.330894,271.603424 109.709587,279.273956 
	C109.324463,280.400909 107.066689,281.790222 105.908859,281.604248 
	C98.398781,280.398132 90.981972,278.616058 83.476112,277.376953 
	C78.918930,276.624695 74.498772,276.251038 75.071297,269.907715 
	C75.095139,269.643585 74.409576,269.315430 74.059753,269.021515 
	C70.262169,273.043060 67.996140,288.969543 70.832733,291.197754 
	C73.792305,286.748474 73.789650,286.763275 79.877228,287.855438 
	C82.323807,288.294373 84.965271,288.211670 87.206055,289.128693 
	C94.329842,292.044006 104.251862,288.413727 109.314133,298.004883 
M535.173218,188.136230 
	C534.058899,187.723831 532.944580,187.311432 531.830200,186.899033 
	C531.898499,188.059082 531.567261,189.463989 532.102844,190.337662 
	C534.708923,194.589142 537.496216,198.733749 540.341370,202.831497 
	C540.990417,203.766342 542.122986,204.365509 543.806213,205.759567 
	C543.806213,203.524979 543.672302,202.439590 543.838745,201.402420 
	C544.067200,199.979431 544.056274,197.916183 544.954651,197.296173 
	C553.513794,191.389099 562.243652,185.729263 569.855957,180.703796 
	C572.711121,181.480377 574.397339,181.939026 576.083618,182.397705 
	C575.494751,180.655563 575.179077,178.751328 574.261230,177.204407 
	C572.228027,173.777679 570.000122,170.450226 567.620483,167.254333 
	C566.808777,166.164154 565.305908,165.588562 564.118774,164.777847 
	C563.726562,165.038986 563.334351,165.300140 562.942078,165.561279 
	C565.587585,170.094757 563.322388,172.295685 559.804199,174.453979 
	C553.148804,178.536926 546.767456,183.064377 540.180847,187.263824 
	C538.926086,188.063812 537.249329,188.201889 535.173218,188.136230 
M578.036072,308.555084 
	C579.402954,307.673340 580.692322,306.200653 582.149658,306.009644 
	C589.397888,305.059601 596.718262,304.648254 603.956848,303.641663 
	C608.432678,303.019287 612.912231,301.386475 614.557190,309.728180 
	C615.808350,306.908875 616.706116,305.844391 616.655823,304.826752 
	C616.475891,301.182098 616.116577,297.530853 615.546814,293.926117 
	C615.150757,291.420288 614.298523,288.986572 613.650085,286.520660 
	C612.663208,288.129730 611.679932,289.741058 610.683167,291.343964 
	C610.600586,291.476776 610.426636,291.552826 609.733398,292.093201 
	C602.257996,292.885803 594.176331,293.722473 586.100037,294.607239 
	C581.811462,295.077026 577.205933,296.625763 574.963440,290.899811 
	C574.908386,290.759247 574.059570,290.929596 572.755737,290.998627 
	C573.289856,297.309052 573.757690,303.521423 574.414795,309.713684 
	C574.494812,310.467468 575.592834,311.113190 576.219055,311.808990 
	C576.815430,310.993866 577.411804,310.178711 578.036072,308.555084 
M111.130417,452.190247 
	C114.437897,454.541901 117.745377,456.893555 121.110344,459.286102 
	C127.841187,448.625244 118.413414,437.737335 108.479324,434.211609 
	C107.866577,440.250671 107.616661,446.077759 111.130417,452.190247 
M573.630859,448.789062 
	C574.111816,443.916260 574.592773,439.043457 575.165466,433.241302 
	C561.044861,440.895844 556.965149,448.840881 561.552246,457.646057 
	C567.516968,457.898163 570.973389,454.528595 573.630859,448.789062 
z"/>
<path fill="#FAF5F5" opacity="1.000000" stroke="none" 
	d="
M488.348145,481.334717 
	C454.736969,512.490112 415.617493,531.492737 370.469391,537.123962 
	C305.351379,545.245850 247.687820,527.703430 198.693558,484.003143 
	C158.710876,448.340759 135.766495,403.228577 129.262634,350.073181 
	C116.744217,247.761154 180.567596,150.179871 279.313171,120.109207 
	C399.907745,83.384949 525.969482,157.097870 551.373779,281.159454 
	C567.203186,358.462097 545.122070,425.623077 488.348145,481.334717 
M401.896576,124.559113 
	C370.530731,115.298767 338.715454,113.662666 306.538361,119.197449 
	C201.630905,137.242599 127.641769,230.129257 133.594757,336.410675 
	C136.672760,391.363617 157.686005,438.438354 197.784897,476.172302 
	C249.280533,524.630920 310.846191,542.909119 380.097595,530.424866 
	C492.307129,510.196472 567.508789,403.137024 547.856262,290.817352 
	C533.189636,206.993347 482.990387,152.226486 401.896576,124.559113 
z"/>
<path fill="#FBF8F8" opacity="1.000000" stroke="none" 
	d="
M543.127014,485.197144 
	C549.045715,485.800781 554.965820,486.391235 560.880981,487.027924 
	C561.497742,487.094360 562.085022,487.435150 562.717712,487.659973 
	C556.609863,498.585480 542.969910,501.921143 536.373047,494.001740 
	C532.948303,497.832855 529.549866,501.634521 525.889160,505.729614 
	C529.487427,506.219849 532.713013,506.419922 535.813843,507.149780 
	C538.849304,507.864288 541.757629,509.118683 544.855957,510.182190 
	C535.123047,520.400024 523.554749,522.088013 517.490784,514.165649 
	C513.785034,517.459412 510.091614,520.742188 506.510651,523.925049 
	C512.233398,525.954773 517.964905,527.987610 524.115540,530.169067 
	C513.176147,539.856323 502.037354,540.322876 496.270142,532.452148 
	C489.596802,537.092773 482.920044,541.729797 475.888092,546.613464 
	C474.873932,545.174866 474.077942,544.045654 473.185211,542.779358 
	C480.239868,538.115601 487.004608,533.643494 493.760468,529.177246 
	C488.396881,520.803589 490.515961,511.546722 500.182343,502.743042 
	C501.614380,509.088348 502.923340,514.888245 504.305237,521.011414 
	C507.519073,518.298950 511.229950,515.166992 514.955627,512.022644 
	C508.175598,504.712677 509.284180,494.426453 518.397217,484.941498 
	C520.426514,491.364075 522.274536,497.213013 523.969604,502.577759 
	C526.929321,499.883759 530.565186,496.574280 533.364319,494.026428 
	C531.403809,489.514069 528.415649,485.751770 528.478088,482.040833 
	C528.568909,476.644348 530.858459,471.284851 532.477661,464.846985 
	C538.062378,471.137024 540.776550,476.957611 541.838257,484.029297 
	C542.703552,484.567444 542.915283,484.882263 543.127014,485.197144 
z"/>
<path fill="#FBF8F8" opacity="1.000000" stroke="none" 
	d="
M141.017822,483.989655 
	C142.550232,479.793518 143.941940,475.538025 145.676773,471.427338 
	C146.495621,469.487122 147.972427,467.824646 149.216812,465.936646 
	C155.661163,475.228027 157.746780,486.070679 148.429169,493.028503 
	C152.225616,496.379059 155.949448,499.665527 159.545837,502.839508 
	C160.017197,500.287537 160.299713,497.070160 161.255173,494.066864 
	C162.183029,491.150330 163.801315,488.453400 165.212830,485.455261 
	C173.819214,495.076599 174.813797,505.157104 167.810577,511.784241 
	C171.605759,515.004456 175.363632,518.193054 178.732315,521.051392 
	C180.048019,515.019836 181.326294,509.159912 182.689301,502.911499 
	C192.230270,510.662354 195.081909,522.462769 188.942429,528.963989 
	C195.773788,533.492188 202.530334,537.970825 209.619812,542.670166 
	C208.948456,543.862976 208.268173,545.071655 207.333435,546.732422 
	C200.184189,541.791504 193.365540,537.079041 186.548492,532.366943 
	C180.249374,540.327332 169.866837,539.830444 158.666153,530.323669 
	C164.836685,528.088440 170.467743,526.048584 176.348297,523.918396 
	C173.128418,520.991882 169.412064,517.614197 165.684708,514.226501 
	C159.358582,522.026428 149.019470,520.625488 137.617249,509.874298 
	C144.310532,508.235474 150.384903,506.748169 156.603607,505.225525 
	C153.572983,501.798553 150.211365,497.997314 146.834244,494.178497 
	C139.795761,501.772675 127.722740,498.905609 120.062592,487.783844 
	C126.469627,485.495209 132.845261,484.313202 139.831146,485.275635 
	C140.426407,484.452057 140.722122,484.220856 141.017822,483.989655 
z"/>
<path fill="#FCFAFA" opacity="1.000000" stroke="none" 
	d="
M539.875305,146.860443 
	C530.444641,150.926041 521.029663,155.028870 511.567535,159.019791 
	C510.030640,159.667999 508.284698,159.820587 506.635437,160.202271 
	C506.882996,158.538712 506.805939,156.740341 507.431671,155.233841 
	C511.055603,146.508270 514.856323,137.856262 518.568604,129.167114 
	C519.251648,127.568336 519.802795,125.913254 519.568909,123.785416 
	C513.027954,130.152435 506.400726,136.435699 500.043213,142.980881 
	C499.136932,143.913910 499.251831,146.149002 499.430298,147.720581 
	C499.557220,148.838196 500.584961,149.853531 501.315216,151.091843 
	C496.696777,151.863159 488.823883,143.826721 489.501556,139.716400 
	C495.681549,141.690323 495.694031,141.703079 500.797607,136.713852 
	C505.800049,131.823502 510.699982,126.825409 515.793335,122.032372 
	C518.036316,119.921730 519.188721,118.056450 516.898499,115.246407 
	C516.424438,114.664742 516.888123,113.318802 516.919617,112.325104 
	C517.790466,112.566650 518.918030,112.541534 519.490723,113.092812 
	C523.329407,116.788109 527.178894,120.492142 530.701721,124.478928 
	C531.418945,125.290634 531.219727,127.523544 530.664062,128.747711 
	C527.477295,135.768127 524.055603,142.681931 521.494080,150.468979 
	C529.434998,146.965729 537.375916,143.462463 544.129761,140.482910 
	C548.793091,144.969315 553.137268,149.148727 557.611572,153.453308 
	C557.333130,153.622467 556.516602,154.348938 556.315735,154.206619 
	C551.970459,151.127106 549.464966,154.255035 546.788208,156.912689 
	C541.469910,162.193008 536.167847,167.490524 530.789185,172.708771 
	C528.964905,174.478592 527.693848,176.088867 529.481934,178.700119 
	C529.917297,179.335876 529.327332,180.673721 529.208740,181.688751 
	C528.327454,181.411575 527.192505,181.392410 526.605957,180.815552 
	C522.689026,176.963211 518.848267,173.030075 515.095032,169.018143 
	C514.531311,168.415604 514.554810,167.263702 514.306702,166.365936 
	C515.338928,166.308197 516.720093,165.795059 517.342529,166.272064 
	C519.942078,168.264084 521.480713,166.870804 523.266846,165.058746 
	C528.876831,159.367477 534.592163,153.780060 540.696655,147.712143 
	C541.244324,146.902679 541.362122,146.533493 541.479858,146.164291 
	C540.945007,146.396332 540.410156,146.628387 539.875305,146.860443 
z"/>
<path fill="#FCF8F8" opacity="1.000000" stroke="none" 
	d="
M85.916016,407.939270 
	C95.400955,405.858826 104.901924,403.845276 114.343079,401.582153 
	C115.177963,401.382050 115.897911,399.619415 116.175430,398.463470 
	C116.490730,397.150177 116.248268,395.703003 116.248268,394.024292 
	C120.932182,395.917053 123.642303,407.432068 120.293358,410.222626 
	C118.541168,403.894623 114.439438,405.195068 109.870956,406.650421 
	C104.515480,408.356476 99.005302,409.633301 93.497658,410.788422 
	C88.619225,411.811523 83.017426,411.701263 84.207817,420.055603 
	C79.013939,413.999908 79.489334,406.757263 76.887146,400.462219 
	C84.513084,395.289795 91.850052,390.313354 100.376091,384.530426 
	C90.266754,383.391724 81.613617,382.417023 72.347992,381.373352 
	C71.419228,375.518707 68.143349,369.782684 69.609268,362.725067 
	C72.703468,369.358795 77.355301,366.633179 81.640488,365.583527 
	C87.752754,364.086334 93.820633,362.387421 99.972054,361.078064 
	C103.855591,360.251495 107.140869,359.281860 105.834274,352.686188 
	C107.961006,354.368805 109.619041,355.020142 109.731918,355.875427 
	C110.558846,362.140930 114.335968,368.076813 112.378014,375.102173 
	C109.862198,368.798279 105.750832,370.661377 101.536697,371.805023 
	C94.194832,373.797424 86.761017,375.450958 79.278564,378.221771 
	C91.804749,379.745544 104.330933,381.269348 116.857117,382.793121 
	C116.992950,383.372375 117.128784,383.951599 117.264618,384.530853 
	C106.918770,392.145416 96.572914,399.759949 85.840164,407.742249 
	C85.475334,408.318237 85.497406,408.526489 85.519485,408.734741 
	C85.657501,408.709808 85.908203,408.701324 85.914680,408.657104 
	C85.948959,408.422760 85.921844,408.179474 85.916016,407.939270 
z"/>
<path fill="#FCF9F9" opacity="1.000000" stroke="none" 
	d="
M304.522644,557.277100 
	C309.068542,559.539612 311.860687,562.803345 311.573212,567.608521 
	C311.190186,574.010986 307.526154,577.963989 301.713531,578.942017 
	C304.463043,585.883728 307.119873,592.591431 310.085052,600.077576 
	C310.119629,600.063660 309.073578,600.869873 308.087891,600.801758 
	C306.124176,600.666199 304.212067,599.860901 302.245850,599.669617 
	C297.041534,599.163330 295.388123,595.826050 295.018066,591.216797 
	C294.819366,588.741943 294.410522,586.282043 294.047455,583.822632 
	C293.514832,580.214111 291.456360,578.233215 286.914124,577.883362 
	C286.160858,581.846008 285.208923,585.789917 284.799774,589.789368 
	C284.703217,590.733154 286.459625,591.843201 287.315094,592.915466 
	C287.928223,593.684082 288.460510,594.517090 289.028900,595.321350 
	C288.199310,595.629944 287.300903,596.320740 286.551147,596.185791 
	C281.177246,595.218811 275.821533,594.137512 270.493713,592.942505 
	C269.724457,592.770020 269.135223,591.794983 268.462677,591.191345 
	C269.306671,590.635498 270.226837,590.166016 270.976990,589.503845 
	C272.136566,588.480347 273.857605,587.486267 274.163361,586.199951 
	C276.267944,577.345154 278.205139,568.442688 279.816437,559.487122 
	C280.062561,558.119080 278.364655,556.388306 277.530884,554.844177 
	C277.104797,554.055115 276.601044,553.308044 276.132355,552.541992 
	C277.098938,552.184326 278.162659,551.362305 279.017059,551.541016 
	C287.425842,553.300049 295.799866,555.225342 304.522644,557.277100 
M299.982941,561.757507 
	C297.372559,560.158386 294.762146,558.559326 291.268341,556.419067 
	C289.866333,563.398071 288.782410,568.793579 287.704742,574.158081 
	C297.812531,576.757202 302.484772,572.158325 299.982941,561.757507 
z"/>
<path fill="#FCF8F8" opacity="1.000000" stroke="none" 
	d="
M387.946655,92.529541 
	C386.812531,94.148285 385.818970,96.080894 384.514557,96.320381 
	C383.476959,96.510880 381.713287,94.870239 380.865173,93.635208 
	C373.727722,83.241898 366.726990,72.754684 358.908600,61.142323 
	C358.176605,66.932266 357.591553,71.552551 357.008820,76.173134 
	C356.780334,77.984787 356.601868,79.804039 356.322021,81.607628 
	C355.769196,85.170883 355.035156,88.728996 360.314667,89.384422 
	C360.951202,89.463455 361.628204,90.672722 361.892426,91.486130 
	C361.981964,91.761909 360.804932,92.904678 360.292969,92.849564 
	C355.346649,92.317078 350.411804,91.657021 345.499084,90.873985 
	C345.118958,90.813400 344.931244,89.545639 344.457336,88.337296 
	C351.727356,88.880775 351.693390,84.088531 352.059235,79.286415 
	C352.538269,72.998306 353.307770,66.728714 354.095551,60.469185 
	C354.526337,57.046139 354.269440,54.191200 350.469727,52.745758 
	C349.783600,52.484753 349.459686,51.271458 348.968567,50.497810 
	C349.898834,50.032867 350.855408,49.127220 351.754669,49.180973 
	C355.233429,49.388901 358.790161,49.545742 362.122894,50.444519 
	C363.944946,50.935890 365.784058,52.590099 366.915985,54.208992 
	C372.785004,62.602985 378.428467,71.154686 384.685089,80.445183 
	C385.526611,73.927292 386.311371,68.421028 386.926788,62.895912 
	C387.395538,58.687496 387.299927,58.676846 381.581604,55.067963 
	C383.976898,52.044163 394.684448,52.865131 397.930176,56.322380 
	C397.807526,56.623924 397.695618,57.180450 397.554871,57.187847 
	C391.513977,57.505230 391.101593,61.459667 390.801361,66.368576 
	C390.274872,74.975853 388.945923,83.534042 387.946655,92.529541 
z"/>
<path fill="#FCFAFA" opacity="1.000000" stroke="none" 
	d="
M91.190689,348.110779 
	C78.035736,349.492920 68.450165,342.789795 66.194283,330.952240 
	C63.973656,319.299622 70.048553,308.287750 80.484833,305.048065 
	C92.107239,301.440155 104.083542,306.621948 108.366920,317.111847 
	C114.146011,331.264740 106.341278,345.676331 91.190689,348.110779 
M102.495064,333.084991 
	C108.774918,327.386200 107.411148,320.049957 99.383179,317.540192 
	C91.769623,315.159973 84.054321,315.318024 76.451797,317.893066 
	C72.336258,319.287018 69.645103,321.703156 69.690605,326.508179 
	C69.736076,331.310242 72.395592,333.924408 76.615837,334.966736 
	C85.136658,337.071289 93.635056,337.212708 102.495064,333.084991 
z"/>
<path fill="#FCFAFA" opacity="1.000000" stroke="none" 
	d="
M323.320465,593.499023 
	C317.608612,582.019287 319.455078,570.360779 327.786041,563.745483 
	C335.902954,557.300171 348.837067,557.457520 356.967285,564.100464 
	C363.654785,569.564636 366.192169,579.615051 363.173492,588.682739 
	C360.267792,597.411133 353.417816,602.504211 344.275177,603.106506 
	C335.647888,603.674866 328.579102,601.068665 323.320465,593.499023 
M338.493958,563.482117 
	C336.913330,565.509399 334.719757,567.308350 333.863922,569.605652 
	C330.988129,577.325073 331.443939,585.209045 333.991364,592.969849 
	C335.369995,597.169861 338.352203,599.862549 342.795166,599.677856 
	C347.227570,599.493530 350.525482,596.653015 350.912109,592.277893 
	C351.516632,585.437256 352.096954,578.395386 351.118164,571.667053 
	C350.030579,564.190979 346.802612,562.576355 338.493958,563.482117 
z"/>
<path fill="#FCF8F8" opacity="1.000000" stroke="none" 
	d="
M614.990479,336.702026 
	C606.223755,343.252808 597.752930,349.562225 588.312012,356.594208 
	C595.784851,357.118134 602.012512,358.013031 608.186157,357.729767 
	C610.243103,357.635376 612.161560,354.522705 614.320984,352.634521 
	C616.646729,354.210846 616.441040,364.734711 613.283997,368.607056 
	C612.991150,368.501282 612.451599,368.430939 612.427917,368.279877 
	C611.499817,362.352234 607.491882,361.910492 602.438416,361.817810 
	C593.814941,361.659576 585.199402,360.750214 576.599670,359.949921 
	C575.214600,359.821045 572.874817,358.689667 572.825439,357.905273 
	C572.733887,356.450470 573.605408,354.386536 574.775818,353.488098 
	C583.610474,346.706207 592.615845,340.146667 601.567139,333.516602 
	C602.876648,332.546722 604.181946,331.571228 606.659180,329.727600 
	C597.513855,329.101471 589.672241,328.465393 581.817810,328.156586 
	C580.870789,328.119354 579.658264,329.720184 578.923645,330.802643 
	C578.155151,331.935089 577.814880,333.358215 577.200867,334.866974 
	C573.533325,331.036713 574.626099,318.719055 578.940247,316.877960 
	C577.984070,324.009705 583.010498,323.627594 587.516174,323.931213 
	C592.821167,324.288666 598.124268,324.688324 603.433777,324.960297 
	C608.570679,325.223419 614.135681,326.249634 615.331116,318.724213 
	C618.912170,321.585022 618.541931,332.294556 614.990479,336.702026 
z"/>
<path fill="#FCFAFA" opacity="1.000000" stroke="none" 
	d="
M240.073624,83.849777 
	C240.622147,71.214493 247.172867,64.104515 260.311615,61.445442 
	C269.101410,59.666523 278.604156,64.826302 282.642670,73.570679 
	C287.245636,83.537354 285.079285,94.066490 277.085297,100.580872 
	C263.745697,111.451439 245.148483,105.306374 241.001511,88.648682 
	C240.642090,87.204956 240.387054,85.735237 240.073624,83.849777 
M272.994019,94.134369 
	C272.944031,85.738869 270.231323,78.175674 265.542175,71.333115 
	C263.090546,67.755600 259.600861,65.872200 255.195023,67.394043 
	C250.909241,68.874397 248.783279,72.336426 249.095230,76.670990 
	C249.661804,84.543633 251.700943,92.190018 256.931702,98.241203 
	C258.925079,100.547264 262.683380,102.454712 265.669128,102.501236 
	C269.738190,102.564636 272.326477,99.257996 272.994019,94.134369 
z"/>
<path fill="#FCF9F9" opacity="1.000000" stroke="none" 
	d="
M600.356079,391.726624 
	C593.061279,385.798920 585.262573,382.706482 576.167786,385.075104 
	C574.037842,385.629791 571.451538,386.868652 570.410278,388.597046 
	C568.842285,391.199829 566.815063,395.741089 567.938660,397.234314 
	C569.651306,399.510406 573.831421,400.501068 577.080566,400.810181 
	C578.718201,400.966003 580.612671,398.422455 582.621582,396.928040 
	C582.653015,397.039917 583.437622,398.265900 583.196838,399.237823 
	C581.965271,404.208618 580.532227,409.133484 579.010498,414.024933 
	C578.719666,414.959625 577.714539,415.672180 577.039001,416.487244 
	C576.443665,415.653290 576.005188,414.607941 575.222107,414.027161 
	C573.288513,412.593109 571.328674,410.591461 569.142456,410.222687 
	C564.097412,409.371704 562.153870,406.621948 563.057678,401.984100 
	C564.214172,396.049683 564.844421,389.696960 567.506592,384.438385 
	C572.810913,373.960754 583.353027,370.572296 594.154724,374.568237 
	C604.085754,378.242096 610.002563,388.544403 607.595581,399.460175 
	C606.404907,404.860168 603.911682,410.027618 601.566223,415.095947 
	C600.344116,417.736725 591.440369,417.253052 590.268555,414.615753 
	C589.184204,412.175385 590.648865,411.339966 592.934204,410.497192 
	C596.051270,409.347687 599.735718,408.069580 601.631348,405.640533 
	C605.023254,401.294220 604.294006,396.308136 600.356079,391.726624 
z"/>
<path fill="#FCF9F9" opacity="1.000000" stroke="none" 
	d="
M247.864716,585.053955 
	C234.943481,582.813110 226.079834,575.505005 223.991821,565.670654 
	C220.595184,549.672791 235.023270,536.166199 251.470871,540.530823 
	C256.926697,541.978577 261.935608,545.311157 266.950897,548.133667 
	C269.439087,549.533936 268.383911,558.708862 265.667297,559.667603 
	C262.740204,560.700684 262.065430,558.876526 261.926636,556.191284 
	C261.553131,548.966248 257.795593,545.025391 251.414352,544.746765 
	C244.871033,544.461060 239.611969,549.260437 235.993881,558.819458 
	C232.880035,567.046204 233.847412,574.251160 238.901688,578.016174 
	C241.552460,579.990723 244.786957,582.120239 247.698364,578.649597 
	C251.579575,574.022766 250.951065,570.186951 245.419708,565.788330 
	C247.067902,565.290039 248.359390,564.409424 249.202408,564.725403 
	C254.162140,566.584167 259.046936,568.656006 263.879669,570.828003 
	C264.718781,571.205078 265.189087,572.402710 265.829742,573.221375 
	C265.041992,573.593811 264.107147,573.806519 263.495544,574.370117 
	C261.972961,575.773254 260.059082,577.093994 259.257446,578.877258 
	C255.991058,586.143127 255.802933,586.386658 247.864716,585.053955 
z"/>
<path fill="#FCFAFA" opacity="1.000000" stroke="none" 
	d="
M437.912811,73.422012 
	C433.315399,66.859344 427.258026,65.518295 421.487671,69.436874 
	C414.542450,74.153244 410.000854,88.043335 413.129150,95.801048 
	C413.959381,97.859863 415.378967,100.186363 417.193756,101.213829 
	C419.421814,102.475258 423.700714,103.818520 424.696716,102.794846 
	C426.893127,100.537415 428.090118,96.899490 428.617371,93.650040 
	C428.799133,92.529793 425.784393,90.890877 423.571777,88.895432 
	C424.653046,88.267418 425.862671,87.059395 426.436432,87.309608 
	C432.311249,89.871445 439.198578,90.321472 444.300842,95.279716 
	C438.407776,95.076126 437.976654,99.493233 437.143250,102.986221 
	C436.188354,106.988449 434.085724,108.770920 430.144348,107.971336 
	C424.691772,106.865196 418.868500,106.399841 413.951904,104.076950 
	C402.525940,98.678665 398.408478,87.857841 402.536499,76.749672 
	C406.501160,66.081238 416.940613,60.446842 428.790863,63.433201 
	C433.980804,64.741112 438.848053,67.520103 443.676605,69.992813 
	C446.161743,71.265480 445.428802,80.603012 442.776337,81.441971 
	C441.853241,81.733948 439.784119,80.245567 439.126709,79.072472 
	C438.289185,77.578003 438.353149,75.578308 437.912811,73.422012 
z"/>
<path fill="#FCFAFA" opacity="1.000000" stroke="none" 
	d="
M185.407593,152.102509 
	C176.916702,159.841476 168.709869,167.329483 160.381622,174.928299 
	C160.680023,173.659637 161.120163,171.788376 161.262314,171.184052 
	C153.958542,163.332550 147.102829,155.628540 139.766312,148.413391 
	C138.578964,147.245682 135.256134,148.249390 131.975098,148.249390 
	C132.610245,146.956940 132.958374,145.278488 133.981430,144.321671 
	C141.526825,137.264908 149.206894,130.352127 156.844589,123.394035 
	C156.553268,122.794762 156.261963,122.195488 155.970642,121.596214 
	C158.143326,123.290596 160.398849,124.892761 162.443344,126.729820 
	C163.150467,127.365211 163.333130,128.584290 163.755356,129.536758 
	C162.737930,129.986084 161.369781,131.105331 160.755844,130.783936 
	C151.994980,126.197578 149.893387,134.680664 145.522415,137.876999 
	C148.931808,141.488358 152.118195,144.863495 155.491608,148.436752 
	C158.576309,145.661789 162.989624,143.814804 159.583313,138.467484 
	C159.268967,137.974030 159.794312,136.381470 160.367767,136.044327 
	C160.948639,135.702820 162.334305,135.995102 162.915131,136.515045 
	C165.517136,138.844376 168.045074,141.274414 170.395660,143.854065 
	C170.986877,144.502899 171.043640,145.877014 170.880829,146.839081 
	C170.827377,147.154877 169.005600,147.670578 168.500183,147.333527 
	C163.409958,143.938934 161.505005,148.109207 158.639999,151.354141 
	C161.708481,154.334747 164.600632,157.270309 167.657669,160.022720 
	C168.400101,160.691162 169.777191,161.209610 170.705399,161.021622 
	C174.923264,160.167343 179.672379,151.772217 178.467728,147.581985 
	C178.101868,146.309448 176.996384,144.794296 177.382721,143.874664 
	C177.878601,142.694229 180.453552,141.118378 180.561539,141.230194 
	C182.976562,143.731079 185.255615,146.382263 187.305023,149.191315 
	C187.540421,149.513977 186.266022,150.938110 185.407593,152.102509 
z"/>
<path fill="#FCFAFA" opacity="1.000000" stroke="none" 
	d="
M458.804321,554.344360 
	C456.126862,562.513306 449.155701,564.744873 442.171356,567.556885 
	C442.972870,569.727051 443.924225,571.793213 444.493896,573.959778 
	C445.447113,577.585144 447.451385,578.799805 451.102905,577.713989 
	C452.074585,577.425110 453.326416,578.078430 454.449646,578.299194 
	C453.708221,579.207153 453.149658,580.544922 452.194763,580.950989 
	C447.179077,583.084412 442.087006,585.047607 436.962769,586.908203 
	C435.893707,587.296326 434.577026,587.002563 433.374481,587.022949 
	C433.951385,585.864746 434.507446,584.695496 435.115906,583.554138 
	C435.343719,583.126831 435.693390,582.764465 436.179230,582.116943 
	C432.501404,572.698792 428.871979,563.130676 424.935608,553.690552 
	C424.472748,552.580566 422.349915,552.114746 420.944672,551.462158 
	C419.979584,551.013977 418.924561,550.759399 417.909760,550.418274 
	C417.872742,549.809448 417.835724,549.200562 417.798706,548.591675 
	C426.718933,545.393677 435.431671,541.216980 444.617035,539.269348 
	C454.047638,537.269775 459.102295,543.287415 458.804321,554.344360 
M437.412445,544.966431 
	C436.261200,545.479126 435.109955,545.991882 433.825989,546.563721 
	C436.154205,552.492432 438.369537,558.133606 440.575317,563.750488 
	C447.359314,561.610046 449.187256,558.967712 447.969910,553.434082 
	C446.550629,546.982483 443.350464,544.178406 437.412445,544.966431 
z"/>
<path fill="#FCF9F9" opacity="1.000000" stroke="none" 
	d="
M379.060181,593.900635 
	C376.930603,586.965942 374.986420,580.347168 373.104401,573.710754 
	C372.698944,572.281006 372.335999,570.796021 372.268677,569.322083 
	C372.087250,565.351440 371.138550,562.213928 365.377960,563.335815 
	C365.474121,562.852783 365.570312,562.369751 365.666504,561.886780 
	C366.600372,561.203735 367.437775,560.221436 368.483185,559.884521 
	C377.729340,556.904724 384.024353,556.491821 387.282532,558.977356 
	C380.364502,560.520569 382.376099,565.193420 383.208923,569.464233 
	C384.287628,574.995972 385.188873,580.574158 386.556030,586.034851 
	C388.325287,593.101868 391.834198,595.819763 397.070221,594.769897 
	C403.755981,593.429321 407.914124,587.930542 406.847290,581.376404 
	C405.728943,574.505798 404.651520,567.584717 402.756226,560.912964 
	C402.231110,559.064453 398.859619,558.024475 396.180817,556.194702 
	C396.526031,555.828003 397.307709,554.245789 398.187714,554.189026 
	C402.749786,553.894775 407.264954,550.765625 412.600311,553.671387 
	C405.232117,556.069092 407.499908,561.084473 408.348633,565.632690 
	C409.139435,569.870300 410.123413,574.073730 410.837891,578.323242 
	C413.177094,592.236511 402.561584,601.771179 388.000610,598.553345 
	C384.920197,597.872620 382.170105,595.697083 379.060181,593.900635 
z"/>
<path fill="#FCF8F8" opacity="1.000000" stroke="none" 
	d="
M313.268982,94.139465 
	C303.322510,93.157860 298.704895,88.241814 297.959198,78.652596 
	C297.483002,72.528999 297.028168,66.363724 295.845581,60.358566 
	C295.472412,58.463825 292.773010,57.027210 291.031281,55.273201 
	C292.854095,52.382992 307.691040,50.712139 311.963531,53.752747 
	C304.735107,56.006130 307.017120,61.391571 307.544220,66.242783 
	C308.028534,70.700600 308.497284,75.160301 308.937958,79.622627 
	C309.720276,87.544212 313.135864,91.379684 318.824219,90.679932 
	C326.049469,89.791115 330.459198,84.337791 329.742432,77.185646 
	C329.129913,71.073418 328.521637,64.960770 327.916168,58.847839 
	C327.652740,56.188229 327.094543,53.911221 323.624023,53.874847 
	C322.760986,53.865803 321.908539,52.843178 321.051239,52.286438 
	C321.827057,51.578121 322.526337,50.382526 323.392090,50.246471 
	C326.995361,49.680191 330.643494,49.322662 334.287628,49.148628 
	C335.167938,49.106590 336.095734,50.058315 337.001709,50.553062 
	C336.456177,51.271603 336.020172,52.477551 335.347198,52.628773 
	C331.279022,53.542934 331.940155,56.537876 332.210632,59.337563 
	C332.769409,65.122276 333.704620,70.887421 333.941803,76.682846 
	C334.408905,88.094719 328.715851,93.877190 317.216827,94.172058 
	C316.052063,94.201935 314.885742,94.171188 313.268982,94.139465 
z"/>
<path fill="#FCFAFA" opacity="1.000000" stroke="none" 
	d="
M489.344849,93.195160 
	C487.481110,96.884293 487.954865,102.095627 482.047455,103.307823 
	C482.047455,100.612808 482.347900,98.427887 481.962280,96.371628 
	C481.582489,94.346443 480.998474,91.950104 479.629517,90.609833 
	C477.192505,88.223846 473.938568,85.569107 470.445984,88.212776 
	C467.255859,90.627510 468.383453,94.256805 470.037354,97.272774 
	C472.108185,101.048958 474.591797,104.597458 476.697205,108.356270 
	C479.956696,114.175461 479.879395,119.364174 476.412720,123.190491 
	C472.296753,127.733490 467.091797,127.959816 461.752045,126.035889 
	C459.153656,125.099693 456.653290,123.646263 454.418060,122.005363 
	C451.143494,119.601479 448.146881,116.819046 444.356049,113.629341 
	C446.238831,110.253342 448.627228,105.970779 451.015594,101.688210 
	C451.663330,101.827866 452.311035,101.967522 452.958740,102.107178 
	C453.051147,103.818703 453.411804,105.566505 453.186157,107.235016 
	C452.481354,112.446655 453.862915,117.059181 458.049591,120.043373 
	C459.987061,121.424362 463.618378,122.159782 465.648407,121.275238 
	C468.710724,119.940933 468.731842,116.472382 467.252716,113.443230 
	C466.309937,111.512527 465.258301,109.632179 464.193878,107.764351 
	C462.798309,105.315361 461.294647,102.927376 459.922058,100.466019 
	C457.268097,95.706924 456.969666,91.000885 460.596771,86.558258 
	C463.632507,82.839958 469.137115,81.768082 474.780640,83.757675 
	C476.178192,84.250374 477.613129,84.786652 478.835968,85.597031 
	C482.343475,87.921494 485.751068,90.396759 489.344849,93.195160 
z"/>
<path fill="#FAF6F6" opacity="1.000000" stroke="none" 
	d="
M219.235901,90.092819 
	C219.120316,87.483772 219.016953,85.354065 218.907623,83.101028 
	C216.846527,83.101028 215.024231,83.101028 213.201920,83.101028 
	C213.119568,82.660614 213.037216,82.220200 212.954849,81.779785 
	C217.143463,79.334358 220.901428,75.996544 225.587830,75.037918 
	C223.447662,89.614281 220.265869,103.239326 229.728455,116.048759 
	C231.755463,115.366341 233.562897,114.757843 236.066132,113.915100 
	C235.809250,115.489914 235.992706,117.096497 235.423645,117.433899 
	C229.344727,121.038231 223.146637,124.441620 216.981277,127.900177 
	C216.559784,127.322563 216.138306,126.744949 215.716812,126.167328 
	C216.962738,124.681473 218.208664,123.195618 219.529343,121.620621 
	C217.619141,114.257355 212.750900,109.568604 205.765244,106.759346 
	C199.399429,104.199371 194.528824,97.692619 186.512543,99.500862 
	C186.402863,96.297661 198.166336,88.386513 207.138840,86.385460 
	C205.156708,88.953682 203.954727,90.511078 202.411331,92.510849 
	C207.702042,95.800919 213.042175,99.121719 219.248138,102.980949 
	C219.248138,98.109276 219.248138,94.340721 219.235901,90.092819 
z"/>
<path fill="#FCF8F8" opacity="1.000000" stroke="none" 
	d="
M131.748535,214.207977 
	C132.862518,214.634644 134.428772,215.608826 134.299271,215.963028 
	C132.253479,221.558655 130.028366,227.090973 127.697624,232.575455 
	C127.524841,232.982025 126.233818,232.913361 125.184082,233.120636 
	C125.184082,231.386963 125.184082,229.939377 125.184082,227.754089 
	C121.277031,229.478790 116.222580,224.751480 113.524887,231.070114 
	C109.486847,240.528198 109.449936,240.512436 117.980644,246.903763 
	C118.859184,245.584930 119.732536,244.273895 121.060760,242.280045 
	C124.488792,247.086426 120.185059,250.198227 119.528801,253.659683 
	C119.259453,255.080414 117.495323,256.217773 117.099976,256.679535 
	C115.143921,253.380630 114.179016,250.562546 112.266739,248.736679 
	C104.453247,241.276199 96.377663,234.088364 88.335411,226.870529 
	C86.234459,224.984985 84.997002,223.422043 86.328537,220.181488 
	C87.585709,217.121948 89.411713,216.879074 92.052483,216.964447 
	C102.356178,217.297531 112.661995,217.587967 122.969154,217.777985 
	C126.165062,217.836914 129.877090,218.813980 131.748535,214.207977 
M110.675415,229.161194 
	C110.288681,228.554733 109.951004,227.461319 109.507675,227.416656 
	C104.729942,226.935349 99.935562,226.619263 94.200867,226.186722 
	C98.877014,230.396561 102.763298,233.895309 107.108398,237.807114 
	C108.371254,234.671326 109.341011,232.263351 110.675415,229.161194 
z"/>
<path fill="#FCF8F8" opacity="1.000000" stroke="none" 
	d="
M118.402634,195.645813 
	C114.693054,195.035828 111.413597,194.152161 108.137459,194.164307 
	C105.456459,194.174225 102.779427,195.251938 99.578651,195.974045 
	C97.956886,193.880325 106.643806,179.331726 111.894096,178.225540 
	C111.537651,180.093369 111.221855,181.748230 110.848518,183.704575 
	C119.771996,185.251785 128.668289,186.794281 138.799911,188.550949 
	C133.041336,180.447464 127.985626,173.333038 123.006760,166.326752 
	C122.430916,166.390396 122.106667,166.353546 121.847977,166.466660 
	C120.225891,167.175873 118.618416,167.918488 117.006096,168.650040 
	C117.590004,166.909378 117.963173,165.057693 118.807755,163.454346 
	C120.041092,161.112991 121.500168,158.863922 123.104858,156.759964 
	C123.630676,156.070526 124.909439,155.955368 125.843872,155.577576 
	C126.026909,156.413605 126.216400,157.248260 126.391762,158.085907 
	C126.893173,160.480896 126.752213,163.290817 127.994682,165.202682 
	C134.054413,174.527161 140.524261,183.584213 146.731079,192.815186 
	C147.540024,194.018265 148.424362,196.569275 147.965988,196.959442 
	C146.673553,198.059509 144.631668,199.027283 143.006165,198.861404 
	C134.927444,198.037109 126.887680,196.831116 118.402634,195.645813 
z"/>
<path fill="#FCF9F9" opacity="1.000000" stroke="none" 
	d="
M558.740601,210.871033 
	C564.807129,208.084961 570.501404,205.407852 576.226379,202.797897 
	C579.890991,201.127197 583.855286,199.736450 581.803223,194.295807 
	C585.830994,194.718521 593.324768,209.772949 592.136841,214.258224 
	C591.830811,214.288879 591.314087,214.441864 591.248962,214.330521 
	C588.154785,209.044235 584.397339,210.660660 580.130371,212.848892 
	C573.654419,216.170013 566.976074,219.108810 560.308472,222.038635 
	C557.339233,223.343323 556.599731,224.669754 557.797241,228.085449 
	C559.783264,233.750610 563.276917,235.986404 569.005676,235.411362 
	C569.984924,235.313065 571.140686,235.131607 571.936951,235.535919 
	C572.848267,235.998657 573.882690,236.997787 574.039062,237.905838 
	C574.150940,238.555634 572.912842,239.445419 572.257446,240.211334 
	C572.161987,240.322861 571.955933,240.338211 571.802551,240.401840 
	C561.419678,244.711304 561.424011,244.709335 556.716003,234.554581 
	C553.653992,227.950058 550.507507,221.383118 547.566650,214.725220 
	C546.991455,213.423050 547.187622,211.780167 547.628662,209.838409 
	C551.168945,214.967285 554.778015,212.950912 558.740601,210.871033 
z"/>
<path fill="#FCF9F9" opacity="1.000000" stroke="none" 
	d="
M586.652954,248.746796 
	C589.127136,248.076996 591.192444,247.463821 593.292419,247.011642 
	C597.661987,246.070816 602.417419,245.621353 601.351257,239.071243 
	C604.935486,240.412521 609.427246,254.922379 608.485107,261.012573 
	C607.863403,260.908508 606.771790,260.943481 606.694946,260.681061 
	C604.884705,254.505493 600.703979,256.073975 596.408142,257.282715 
	C589.232971,259.301636 581.989441,261.076324 574.787476,263.001556 
	C573.545715,263.333496 572.367065,263.901733 571.245789,264.327911 
	C572.747253,275.388611 572.761963,275.333191 583.001709,278.051239 
	C584.141663,278.353821 584.996704,279.729950 585.983887,280.608215 
	C584.978088,281.397766 584.053528,282.727997 582.953918,282.893219 
	C571.976990,284.542603 571.951782,284.492859 569.147400,273.680420 
	C567.401367,266.948578 565.651184,260.216187 564.062073,253.446640 
	C563.761597,252.166595 564.210083,250.710754 564.312988,249.336029 
	C565.351807,250.070511 566.304016,251.018951 567.451965,251.484024 
	C568.813538,252.035645 570.443359,252.667053 571.782837,252.397797 
	C576.647888,251.419861 581.440063,250.079834 586.652954,248.746796 
z"/>
<path fill="#FCF9F9" opacity="1.000000" stroke="none" 
	d="
M108.900513,298.057617 
	C104.251862,288.413727 94.329842,292.044006 87.206055,289.128693 
	C84.965271,288.211670 82.323807,288.294373 79.877228,287.855438 
	C73.789650,286.763275 73.792305,286.748474 70.832733,291.197754 
	C67.996140,288.969543 70.262169,273.043060 74.059753,269.021515 
	C74.409576,269.315430 75.095139,269.643585 75.071297,269.907715 
	C74.498772,276.251038 78.918930,276.624695 83.476112,277.376953 
	C90.981972,278.616058 98.398781,280.398132 105.908859,281.604248 
	C107.066689,281.790222 109.324463,280.400909 109.709587,279.273956 
	C112.330894,271.603424 111.676003,270.332703 104.931854,265.054077 
	C103.659630,264.058319 103.225105,261.992310 102.404037,260.420135 
	C104.010323,260.320587 105.721893,259.818085 107.201164,260.204620 
	C110.360573,261.030121 113.399658,262.316132 116.641655,263.468048 
	C114.623428,274.359528 112.689125,284.919586 110.672470,295.463898 
	C110.500221,296.364563 109.779869,297.160370 108.900513,298.057617 
z"/>
<path fill="#FCF9F9" opacity="1.000000" stroke="none" 
	d="
M535.470215,188.390808 
	C537.249329,188.201889 538.926086,188.063812 540.180847,187.263824 
	C546.767456,183.064377 553.148804,178.536926 559.804199,174.453979 
	C563.322388,172.295685 565.587585,170.094757 562.942078,165.561279 
	C563.334351,165.300140 563.726562,165.038986 564.118774,164.777847 
	C565.305908,165.588562 566.808777,166.164154 567.620483,167.254333 
	C570.000122,170.450226 572.228027,173.777679 574.261230,177.204407 
	C575.179077,178.751328 575.494751,180.655563 576.083618,182.397705 
	C574.397339,181.939026 572.711121,181.480377 569.855957,180.703796 
	C562.243652,185.729263 553.513794,191.389099 544.954651,197.296173 
	C544.056274,197.916183 544.067200,199.979431 543.838745,201.402420 
	C543.672302,202.439590 543.806213,203.524979 543.806213,205.759567 
	C542.122986,204.365509 540.990417,203.766342 540.341370,202.831497 
	C537.496216,198.733749 534.708923,194.589142 532.102844,190.337662 
	C531.567261,189.463989 531.898499,188.059082 531.830200,186.899033 
	C532.944580,187.311432 534.058899,187.723831 535.470215,188.390808 
z"/>
<path fill="#FCF8F8" opacity="1.000000" stroke="none" 
	d="
M578.022095,308.959320 
	C577.411804,310.178711 576.815430,310.993866 576.219055,311.808990 
	C575.592834,311.113190 574.494812,310.467468 574.414795,309.713684 
	C573.757690,303.521423 573.289856,297.309052 572.755737,290.998627 
	C574.059570,290.929596 574.908386,290.759247 574.963440,290.899811 
	C577.205933,296.625763 581.811462,295.077026 586.100037,294.607239 
	C594.176331,293.722473 602.257996,292.885803 609.733398,292.093201 
	C610.426636,291.552826 610.600586,291.476776 610.683167,291.343964 
	C611.679932,289.741058 612.663208,288.129730 613.650146,286.520660 
	C614.298523,288.986572 615.150757,291.420288 615.546814,293.926117 
	C616.116577,297.530853 616.475891,301.182098 616.655823,304.826752 
	C616.706116,305.844391 615.808350,306.908875 614.557190,309.728180 
	C612.912231,301.386475 608.432678,303.019287 603.956848,303.641663 
	C596.718262,304.648254 589.397888,305.059601 582.149658,306.009644 
	C580.692322,306.200653 579.402954,307.673340 578.022095,308.959320 
z"/>
<path fill="#FCFAFA" opacity="1.000000" stroke="none" 
	d="
M130.064117,471.337219 
	C126.775581,476.249603 121.040222,477.932800 115.393776,474.540131 
	C110.999741,471.899994 107.375854,467.978058 103.409698,464.625793 
	C103.644814,464.082855 103.879936,463.539886 104.115051,462.996948 
	C111.484657,462.996948 118.854271,462.996948 124.977402,462.996948 
	C128.026749,456.827515 131.071426,450.667542 134.549072,443.631561 
	C141.370972,455.356964 140.421341,465.806183 132.510315,470.150940 
	C131.259842,470.496521 130.661972,470.916870 130.064117,471.337219 
z"/>
<path fill="#FCFAFA" opacity="1.000000" stroke="none" 
	d="
M550.529053,470.276306 
	C544.696167,468.608429 543.674622,463.677307 543.856689,458.883453 
	C544.034424,454.204224 545.588135,449.577271 546.740601,443.934204 
	C552.625244,450.134033 556.954346,455.624451 556.434998,462.992371 
	C564.068298,462.992371 571.452637,462.992371 579.226318,462.992371 
	C571.852295,475.808441 559.758118,479.195557 554.175781,472.808777 
	C552.892395,471.464386 551.710693,470.870331 550.529053,470.276306 
z"/>
<path fill="#FAF6F6" opacity="1.000000" stroke="none" 
	d="
M110.955948,451.855103 
	C107.616661,446.077759 107.866577,440.250671 108.479324,434.211609 
	C118.413414,437.737335 127.841187,448.625244 121.110344,459.286102 
	C117.745377,456.893555 114.437897,454.541901 110.955948,451.855103 
z"/>
<path fill="#FAF6F6" opacity="1.000000" stroke="none" 
	d="
M573.455139,449.141479 
	C570.973389,454.528595 567.516968,457.898163 561.552246,457.646057 
	C556.965149,448.840881 561.044861,440.895844 575.165466,433.241302 
	C574.592773,439.043457 574.111816,443.916260 573.455139,449.141479 
z"/>
<path fill="#EBD8D8" opacity="1.000000" stroke="none" 
	d="
M550.695679,470.585693 
	C551.710693,470.870331 552.892395,471.464386 554.073853,472.447235 
	C552.458252,474.376740 550.693542,475.791595 549.263794,477.488586 
	C547.284485,479.837891 545.557129,482.399384 543.424438,485.033569 
	C542.915283,484.882263 542.703552,484.567444 542.237122,484.120972 
	C544.942383,479.624573 547.902283,475.259827 550.695679,470.585693 
z"/>
<path fill="#EBD8D8" opacity="1.000000" stroke="none" 
	d="
M130.117157,471.712341 
	C130.661972,470.916870 131.259842,470.496521 132.160919,470.177979 
	C133.734802,472.718018 134.854736,475.251709 136.321243,477.565796 
	C137.621384,479.617401 139.306610,481.424927 140.919861,483.664917 
	C140.722122,484.220856 140.426407,484.452057 140.001068,484.939178 
	C136.637695,480.825867 133.403946,476.456665 130.117157,471.712341 
z"/>
<path fill="#9D3B3B" opacity="1.000000" stroke="none" 
	d="
M402.278931,124.688934 
	C482.990387,152.226486 533.189636,206.993347 547.856262,290.817352 
	C567.508789,403.137024 492.307129,510.196472 380.097595,530.424866 
	C310.846191,542.909119 249.280533,524.630920 197.784897,476.172302 
	C157.686005,438.438354 136.672760,391.363617 133.594757,336.410675 
	C127.641769,230.129257 201.630905,137.242599 306.538361,119.197449 
	C338.715454,113.662666 370.530731,115.298767 402.278931,124.688934 
M181.499161,201.036667 
	C144.619095,249.930206 131.846939,304.835541 143.523743,364.588470 
	C163.306885,465.823669 253.882568,534.385803 356.862335,527.092346 
	C410.486328,523.294556 455.716736,501.222076 491.529694,461.305786 
	C531.583130,416.663177 549.552856,363.902313 543.668762,304.041138 
	C538.715393,253.648468 516.790222,210.943436 479.605469,176.715714 
	C432.769379,133.604172 377.227783,115.491508 314.079193,124.434059 
	C260.225403,132.060364 216.097778,157.941879 181.499161,201.036667 
z"/>
<path fill="#9A3535" opacity="1.000000" stroke="none" 
	d="
M540.069519,147.064392 
	C540.410156,146.628387 540.945007,146.396332 541.479858,146.164291 
	C541.362122,146.533493 541.244324,146.902679 540.906738,147.455994 
	C540.545898,147.516190 540.404785,147.392273 540.069519,147.064392 
z"/>
<path fill="#9A3535" opacity="1.000000" stroke="none" 
	d="
M85.944885,407.959259 
	C85.921844,408.179474 85.948959,408.422760 85.914680,408.657104 
	C85.908203,408.701324 85.657501,408.709808 85.519485,408.734741 
	C85.497406,408.526489 85.475334,408.318237 85.740784,408.066742 
	C86.028305,408.023499 85.973763,407.979248 85.944885,407.959259 
z"/>
<path fill="#9B3636" opacity="1.000000" stroke="none" 
	d="
M300.110352,562.133667 
	C302.484772,572.158325 297.812531,576.757202 287.704742,574.158081 
	C288.782410,568.793579 289.866333,563.398071 291.268341,556.419067 
	C294.762146,558.559326 297.372559,560.158386 300.110352,562.133667 
z"/>
<path fill="#9A3636" opacity="1.000000" stroke="none" 
	d="
M102.189034,333.334717 
	C93.635056,337.212708 85.136658,337.071289 76.615837,334.966736 
	C72.395592,333.924408 69.736076,331.310242 69.690605,326.508179 
	C69.645103,321.703156 72.336258,319.287018 76.451797,317.893066 
	C84.054321,315.318024 91.769623,315.159973 99.383179,317.540192 
	C107.411148,320.049957 108.774918,327.386200 102.189034,333.334717 
z"/>
<path fill="#9A3636" opacity="1.000000" stroke="none" 
	d="
M338.856049,563.306519 
	C346.802612,562.576355 350.030579,564.190979 351.118164,571.667053 
	C352.096954,578.395386 351.516632,585.437256 350.912109,592.277893 
	C350.525482,596.653015 347.227570,599.493530 342.795166,599.677856 
	C338.352203,599.862549 335.369995,597.169861 333.991364,592.969849 
	C331.443939,585.209045 330.988129,577.325073 333.863922,569.605652 
	C334.719757,567.308350 336.913330,565.509399 338.856049,563.306519 
z"/>
<path fill="#9A3636" opacity="1.000000" stroke="none" 
	d="
M272.981323,94.556953 
	C272.326477,99.257996 269.738190,102.564636 265.669128,102.501236 
	C262.683380,102.454712 258.925079,100.547264 256.931702,98.241203 
	C251.700943,92.190018 249.661804,84.543633 249.095230,76.670990 
	C248.783279,72.336426 250.909241,68.874397 255.195023,67.394043 
	C259.600861,65.872200 263.090546,67.755600 265.542175,71.333115 
	C270.231323,78.175674 272.944031,85.738869 272.981323,94.556953 
z"/>
<path fill="#9D3B3B" opacity="1.000000" stroke="none" 
	d="
M437.786499,544.902588 
	C443.350464,544.178406 446.550629,546.982483 447.969910,553.434082 
	C449.187256,558.967712 447.359314,561.610046 440.575317,563.750488 
	C438.369537,558.133606 436.154205,552.492432 433.825989,546.563721 
	C435.109955,545.991882 436.261200,545.479126 437.786499,544.902588 
z"/>
<path fill="#9D3B3B" opacity="1.000000" stroke="none" 
	d="
M110.493088,229.508286 
	C109.341011,232.263351 108.371254,234.671326 107.108398,237.807114 
	C102.763298,233.895309 98.877014,230.396561 94.200867,226.186722 
	C99.935562,226.619263 104.729942,226.935349 109.507675,227.416656 
	C109.951004,227.461319 110.288681,228.554733 110.493088,229.508286 
z"/>
<path fill="#FFFEFE" opacity="1.000000" stroke="none" 
	d="
M181.723984,200.760544 
	C216.097778,157.941879 260.225403,132.060364 314.079193,124.434059 
	C377.227783,115.491508 432.769379,133.604172 479.605469,176.715714 
	C516.790222,210.943436 538.715393,253.648468 543.668762,304.041138 
	C549.552856,363.902313 531.583130,416.663177 491.529694,461.305786 
	C455.716736,501.222076 410.486328,523.294556 356.862335,527.092346 
	C253.882568,534.385803 163.306885,465.823669 143.523743,364.588470 
	C131.846939,304.835541 144.619095,249.930206 181.723984,200.760544 
M354.500122,304.443726 
	C319.005951,304.443695 283.511749,304.424774 248.017578,304.450836 
	C227.416565,304.465973 212.455261,319.471924 212.447159,340.082489 
	C212.434174,373.077148 212.443665,406.071777 212.443665,439.066437 
	C212.443665,440.853119 212.443665,442.639832 212.443665,444.490479 
	C236.419235,444.490479 259.791138,444.490479 283.556366,444.490479 
	C283.556366,442.325653 283.556366,440.517792 283.556366,438.709930 
	C283.556366,409.714630 283.545593,380.719330 283.561401,351.724030 
	C283.568146,339.337341 289.942291,332.877411 302.256866,332.861176 
	C328.752533,332.826233 355.248291,332.826294 381.743958,332.861206 
	C394.040344,332.877380 400.431763,339.353271 400.438538,351.719391 
	C400.454437,380.714691 400.443634,409.709991 400.443634,438.705292 
	C400.443634,440.650360 400.443634,442.595459 400.443634,444.637970 
	C424.401520,444.637970 447.676971,444.637970 471.556366,444.637970 
	C471.556366,442.651855 471.556366,440.861450 471.556366,439.071075 
	C471.556366,406.243073 471.560181,373.415039 471.554993,340.587036 
	C471.551605,319.285095 456.758728,304.456146 435.487183,304.446564 
	C408.824829,304.434540 382.162506,304.443909 354.500122,304.443726 
M449.057007,292.549744 
	C464.037659,291.222748 471.546326,283.092621 471.550262,268.179596 
	C471.554962,250.359558 471.551361,232.539505 471.551361,214.719467 
	C471.551361,212.953506 471.551361,211.187546 471.551361,209.163406 
	C436.652802,209.163406 402.519745,208.938141 368.392609,209.289093 
	C356.886536,209.407394 348.153381,219.470108 348.002991,231.115219 
	C347.957825,234.612030 347.995728,238.109909 347.995728,241.607300 
	C347.995697,258.404327 347.995728,275.201385 347.995728,292.550812 
	C381.608978,292.550812 414.875214,292.550812 449.057007,292.549744 
M294.499878,292.551300 
	C308.253754,292.551300 322.007599,292.551300 336.004272,292.551300 
	C336.004272,272.059937 336.017944,252.255615 335.999695,232.451324 
	C335.986664,218.314301 326.730988,209.160751 312.454315,209.156067 
	C280.984741,209.145737 249.515152,209.152847 218.045578,209.152863 
	C216.405670,209.152863 214.765747,209.152878 212.448624,209.152878 
	C212.448624,211.293884 212.448624,213.073425 212.448624,214.852951 
	C212.448624,232.502548 212.446823,250.152161 212.449158,267.801758 
	C212.451263,283.801971 221.112915,292.530090 237.054413,292.546722 
	C255.869537,292.566345 274.684692,292.551117 294.499878,292.551300 
M317.708557,430.892700 
	C326.931976,436.230774 336.787354,438.281433 347.435303,437.175598 
	C372.080536,434.616058 390.044586,413.446075 389.154633,387.757782 
	C388.339294,364.223389 367.366821,343.693329 343.593933,343.158203 
	C322.250519,342.677765 303.141663,356.220032 296.934021,376.225555 
	C290.404694,397.267975 298.124146,418.049377 317.708557,430.892700 
z"/>
<path fill="#9B3636" opacity="1.000000" stroke="none" 
	d="
M355.000122,304.443909 
	C382.162506,304.443909 408.824829,304.434540 435.487183,304.446564 
	C456.758728,304.456146 471.551605,319.285095 471.554993,340.587036 
	C471.560181,373.415039 471.556366,406.243073 471.556366,439.071075 
	C471.556366,440.861450 471.556366,442.651855 471.556366,444.637970 
	C447.676971,444.637970 424.401520,444.637970 400.443634,444.637970 
	C400.443634,442.595459 400.443634,440.650360 400.443634,438.705292 
	C400.443634,409.709991 400.454437,380.714691 400.438538,351.719391 
	C400.431763,339.353271 394.040344,332.877380 381.743958,332.861206 
	C355.248291,332.826294 328.752533,332.826233 302.256866,332.861176 
	C289.942291,332.877411 283.568146,339.337341 283.561401,351.724030 
	C283.545593,380.719330 283.556366,409.714630 283.556366,438.709930 
	C283.556366,440.517792 283.556366,442.325653 283.556366,444.490479 
	C259.791138,444.490479 236.419235,444.490479 212.443665,444.490479 
	C212.443665,442.639832 212.443665,440.853119 212.443665,439.066437 
	C212.443665,406.071777 212.434174,373.077148 212.447159,340.082489 
	C212.455261,319.471924 227.416565,304.465973 248.017578,304.450836 
	C283.511749,304.424774 319.005951,304.443695 355.000122,304.443909 
z"/>
<path fill="#9A3535" opacity="1.000000" stroke="none" 
	d="
M448.599243,292.550293 
	C414.875214,292.550812 381.608978,292.550812 347.995728,292.550812 
	C347.995728,275.201385 347.995697,258.404327 347.995728,241.607300 
	C347.995728,238.109909 347.957825,234.612030 348.002991,231.115219 
	C348.153381,219.470108 356.886536,209.407394 368.392609,209.289093 
	C402.519745,208.938141 436.652802,209.163406 471.551361,209.163406 
	C471.551361,211.187546 471.551361,212.953506 471.551361,214.719467 
	C471.551361,232.539505 471.554962,250.359558 471.550262,268.179596 
	C471.546326,283.092621 464.037659,291.222748 448.599243,292.550293 
z"/>
<path fill="#9A3535" opacity="1.000000" stroke="none" 
	d="
M293.999878,292.551147 
	C274.684692,292.551117 255.869537,292.566345 237.054413,292.546722 
	C221.112915,292.530090 212.451263,283.801971 212.449158,267.801758 
	C212.446823,250.152161 212.448624,232.502548 212.448624,214.852951 
	C212.448624,213.073425 212.448624,211.293884 212.448624,209.152878 
	C214.765747,209.152878 216.405670,209.152863 218.045578,209.152863 
	C249.515152,209.152847 280.984741,209.145737 312.454315,209.156067 
	C326.730988,209.160751 335.986664,218.314301 335.999695,232.451324 
	C336.017944,252.255615 336.004272,272.059937 336.004272,292.551300 
	C322.007599,292.551300 308.253754,292.551300 293.999878,292.551147 
z"/>
<path fill="#993434" opacity="1.000000" stroke="none" 
	d="
M317.400635,430.693481 
	C298.124146,418.049377 290.404694,397.267975 296.934021,376.225555 
	C303.141663,356.220032 322.250519,342.677765 343.593933,343.158203 
	C367.366821,343.693329 388.339294,364.223389 389.154633,387.757782 
	C390.044586,413.446075 372.080536,434.616058 347.435303,437.175598 
	C336.787354,438.281433 326.931976,436.230774 317.400635,430.693481 
z"/>
</svg>